<svg xmlns="http://www.w3.org/2000/svg" xmlns:xlink="http://www.w3.org/1999/xlink" width="367px" height="261px" viewBox="0 0 367 261" version="1.1">
    <title>ByteCamp-Info-dark</title>
    <defs>
        <path d="M118,20 L329,20 L329,214 C329,225.045695 320.045695,234 309,234 L138,234 C126.954305,234 118,225.045695 118,214 L118,20 L118,20 Z" id="path-1"/>
        <filter x="-5.0%" y="-4.9%" width="110.0%" height="109.8%" filterUnits="objectBoundingBox" id="filter-2">
            <feMorphology radius="0.5" operator="dilate" in="SourceAlpha" result="shadowSpreadOuter1"/>
            <feOffset dx="2" dy="2" in="shadowSpreadOuter1" result="shadowOffsetOuter1"/>
            <feGaussianBlur stdDeviation="2" in="shadowOffsetOuter1" result="shadowBlurOuter1"/>
            <feColorMatrix values="0 0 0 0 0.00392156863   0 0 0 0 0.00392156863   0 0 0 0 0.00392156863  0 0 0 1 0" type="matrix" in="shadowBlurOuter1" result="shadowMatrixOuter1"/>
            <feMorphology radius="0.5" operator="dilate" in="SourceAlpha" result="shadowSpreadOuter2"/>
            <feOffset dx="-2" dy="-2" in="shadowSpreadOuter2" result="shadowOffsetOuter2"/>
            <feGaussianBlur stdDeviation="2" in="shadowOffsetOuter2" result="shadowBlurOuter2"/>
            <feColorMatrix values="0 0 0 0 0.0934474779   0 0 0 0 0.0934474779   0 0 0 0 0.0934474779  0 0 0 0.2 0" type="matrix" in="shadowBlurOuter2" result="shadowMatrixOuter2"/>
            <feMerge>
                <feMergeNode in="shadowMatrixOuter1"/>
                <feMergeNode in="shadowMatrixOuter2"/>
            </feMerge>
        </filter>
        <path d="M135.864,44.068 C136.517333,44.068 137.077333,43.8346667 137.544,43.368 C138.010667,42.9013333 138.244,42.3413333 138.244,41.688 C138.244,41.0346667 138.010667,40.4746667 137.544,40.008 C137.077333,39.5413333 136.517333,39.308 135.864,39.308 C135.210667,39.308 134.650667,39.5413333 134.184,40.008 C133.717333,40.4746667 133.484,41.0346667 133.484,41.688 C133.484,42.3413333 133.717333,42.9013333 134.184,43.368 C134.650667,43.8346667 135.210667,44.068 135.864,44.068 Z M137.908,60 L137.908,45.804 L133.82,45.804 L133.82,60 L137.908,60 Z M146.476,60 L146.476,48.8 L149.136,48.8 L149.136,45.804 L146.476,45.804 L146.476,45.272 C146.476,44.4693333 146.644,43.9093333 146.98,43.592 C147.316,43.2746667 147.829333,43.116 148.52,43.116 C148.968,43.116 149.453333,43.2186667 149.976,43.424 L149.976,43.424 L149.976,40.12 C149.434667,39.9333333 148.725333,39.84 147.848,39.84 C146.149333,39.84 144.819333,40.316 143.858,41.268 C142.896667,42.22 142.416,43.5546667 142.416,45.272 L142.416,45.272 L142.416,45.804 L140.568,45.804 L140.568,48.8 L142.416,48.8 L142.416,60 L146.476,60 Z M164.508,65.768 C165.086667,65.768 165.702667,65.656 166.356,65.432 L166.356,65.432 L166.356,61.652 C166.076,61.82 165.786667,61.904 165.488,61.904 C165.096,61.904 164.76,61.7593333 164.48,61.47 C164.2,61.1806667 164.06,60.812 164.06,60.364 C164.06,60.14 164.116,59.6593333 164.228,58.922 C164.34,58.1846667 164.396,57.592 164.396,57.144 C164.396,56.0053333 164.074,55.0346667 163.43,54.232 C162.786,53.4293333 162.025333,52.972 161.148,52.86 C162.025333,52.748 162.786,52.2953333 163.43,51.502 C164.074,50.7086667 164.396,49.7426667 164.396,48.604 C164.396,48.156 164.34,47.5633333 164.228,46.826 C164.116,46.0886667 164.06,45.608 164.06,45.384 C164.06,44.936 164.2,44.5673333 164.48,44.278 C164.76,43.9886667 165.096,43.844 165.488,43.844 C165.786667,43.844 166.076,43.928 166.356,44.096 L166.356,44.096 L166.356,40.316 C165.702667,40.092 165.086667,39.98 164.508,39.98 C163.201333,39.98 162.132667,40.456 161.302,41.408 C160.471333,42.36 160.056,43.564 160.056,45.02 C160.056,45.4306667 160.112,45.9906667 160.224,46.7 C160.336,47.4093333 160.392,47.9133333 160.392,48.212 C160.392,48.9213333 160.177333,49.5466667 159.748,50.088 C159.318667,50.6293333 158.74,50.9 158.012,50.9 L158.012,50.9 L157.536,50.9 L157.536,54.848 L158.012,54.82 C158.74,54.82 159.318667,55.0953333 159.748,55.646 C160.177333,56.1966667 160.392,56.8266667 160.392,57.536 C160.392,57.8346667 160.336,58.3386667 160.224,59.048 C160.112,59.7573333 160.056,60.3173333 160.056,60.728 C160.056,62.184 160.471333,63.388 161.302,64.34 C162.132667,65.292 163.201333,65.768 164.508,65.768 Z M164.172,98.224 C164.862667,98.224 165.450667,97.9813333 165.936,97.496 C166.421333,97.0106667 166.664,96.4226667 166.664,95.732 C166.664,95.0413333 166.421333,94.4533333 165.936,93.968 C165.450667,93.4826667 164.862667,93.24 164.172,93.24 C163.481333,93.24 162.893333,93.4826667 162.408,93.968 C161.922667,94.4533333 161.68,95.0413333 161.68,95.732 C161.68,96.4226667 161.922667,97.0106667 162.408,97.496 C162.893333,97.9813333 163.481333,98.224 164.172,98.224 Z M173.132,98.224 C173.822667,98.224 174.410667,97.9813333 174.896,97.496 C175.381333,97.0106667 175.624,96.4226667 175.624,95.732 C175.624,95.0413333 175.381333,94.4533333 174.896,93.968 C174.410667,93.4826667 173.822667,93.24 173.132,93.24 C172.441333,93.24 171.853333,93.4826667 171.368,93.968 C170.882667,94.4533333 170.64,95.0413333 170.64,95.732 C170.64,96.4226667 170.882667,97.0106667 171.368,97.496 C171.853333,97.9813333 172.441333,98.224 173.132,98.224 Z M182.092,98.224 C182.782667,98.224 183.370667,97.9813333 183.856,97.496 C184.341333,97.0106667 184.584,96.4226667 184.584,95.732 C184.584,95.0413333 184.341333,94.4533333 183.856,93.968 C183.370667,93.4826667 182.782667,93.24 182.092,93.24 C181.401333,93.24 180.813333,93.4826667 180.328,93.968 C179.842667,94.4533333 179.6,95.0413333 179.6,95.732 C179.6,96.4226667 179.842667,97.0106667 180.328,97.496 C180.813333,97.9813333 181.401333,98.224 182.092,98.224 Z M134.548,141.768 C135.854667,141.768 136.923333,141.292 137.754,140.34 C138.584667,139.388 139,138.184 139,136.728 C139,136.317333 138.944,135.757333 138.832,135.048 C138.72,134.338667 138.664,133.834667 138.664,133.536 C138.664,132.826667 138.878667,132.196667 139.308,131.646 C139.737333,131.095333 140.316,130.82 141.044,130.82 C141.230667,130.82 141.389333,130.829333 141.52,130.848 L141.52,130.848 L141.52,126.9 L141.044,126.9 C140.316,126.9 139.737333,126.629333 139.308,126.088 C138.878667,125.546667 138.664,124.921333 138.664,124.212 C138.664,123.913333 138.72,123.409333 138.832,122.7 C138.944,121.990667 139,121.430667 139,121.02 C139,119.564 138.584667,118.36 137.754,117.408 C136.923333,116.456 135.854667,115.98 134.548,115.98 C133.969333,115.98 133.353333,116.092 132.7,116.316 L132.7,116.316 L132.7,120.096 C132.98,119.928 133.269333,119.844 133.568,119.844 C133.96,119.844 134.296,119.988667 134.576,120.278 C134.856,120.567333 134.996,120.936 134.996,121.384 C134.996,121.608 134.94,122.088667 134.828,122.826 C134.716,123.563333 134.66,124.156 134.66,124.604 C134.66,125.742667 134.982,126.708667 135.626,127.502 C136.27,128.295333 137.030667,128.748 137.908,128.86 C137.030667,128.972 136.27,129.429333 135.626,130.232 C134.982,131.034667 134.66,132.005333 134.66,133.144 C134.66,133.592 134.716,134.184667 134.828,134.922 C134.94,135.659333 134.996,136.14 134.996,136.364 C134.996,136.812 134.856,137.180667 134.576,137.47 C134.296,137.759333 133.96,137.904 133.568,137.904 C133.269333,137.904 132.98,137.82 132.7,137.652 L132.7,137.652 L132.7,141.432 C133.353333,141.656 133.969333,141.768 134.548,141.768 Z M158.012,136.14 C160.009333,136.14 161.493333,135.822667 162.464,135.188 L162.464,135.188 L162.464,131.772 C161.4,132.574667 160.149333,132.976 158.712,132.976 C157.741333,132.976 156.910667,132.761333 156.22,132.332 C155.529333,131.902667 155.044,131.296 154.764,130.512 L154.764,130.512 L163.108,130.512 C163.257333,129.466667 163.332,128.729333 163.332,128.3 C163.332,126.097333 162.781333,124.440667 161.68,123.33 C160.578667,122.219333 159.076,121.664 157.172,121.664 C155.324,121.664 153.77,122.303333 152.51,123.582 C151.25,124.860667 150.62,126.629333 150.62,128.888 C150.62,131.016 151.268667,132.756667 152.566,134.11 C153.863333,135.463333 155.678667,136.14 158.012,136.14 Z M159.524,127.6 L154.596,127.6 C154.764,126.666667 155.1,125.962 155.604,125.486 C156.108,125.01 156.686667,124.772 157.34,124.772 C158.665333,124.772 159.393333,125.602667 159.524,127.264 L159.524,127.264 L159.524,127.6 Z M170.472,136 L170.472,116.204 L166.384,116.204 L166.384,136 L170.472,136 Z M178.144,136.112 C179.805333,136.112 181.14,135.729333 182.148,134.964 C183.156,134.198667 183.66,133.116 183.66,131.716 C183.66,130.801333 183.398667,130.05 182.876,129.462 C182.353333,128.874 181.662667,128.356 180.804,127.908 C180.598667,127.796 180.323333,127.665333 179.978,127.516 C179.632667,127.366667 179.362,127.240667 179.166,127.138 C178.97,127.035333 178.764667,126.918667 178.55,126.788 C178.335333,126.657333 178.181333,126.517333 178.088,126.368 C177.994667,126.218667 177.948,126.06 177.948,125.892 C177.948,125.593333 178.078667,125.346 178.34,125.15 C178.601333,124.954 178.974667,124.856 179.46,124.856 C180.785333,124.856 181.942667,125.145333 182.932,125.724 L182.932,125.724 L182.932,122.224 C181.961333,121.832 180.748,121.636 179.292,121.636 C177.724,121.636 176.412667,122.018667 175.358,122.784 C174.303333,123.549333 173.776,124.622667 173.776,126.004 C173.776,127.796 174.718667,129.14 176.604,130.036 C176.790667,130.129333 177.061333,130.250667 177.416,130.4 C177.770667,130.549333 178.041333,130.666 178.228,130.75 C178.414667,130.834 178.62,130.941333 178.844,131.072 C179.068,131.202667 179.226667,131.342667 179.32,131.492 C179.413333,131.641333 179.46,131.8 179.46,131.968 C179.46,132.621333 178.946667,132.948 177.92,132.948 C176.482667,132.948 175.12,132.5 173.832,131.604 L173.832,131.604 L173.832,135.244 C174.989333,135.822667 176.426667,136.112 178.144,136.112 Z M192.872,136.14 C194.869333,136.14 196.353333,135.822667 197.324,135.188 L197.324,135.188 L197.324,131.772 C196.26,132.574667 195.009333,132.976 193.572,132.976 C192.601333,132.976 191.770667,132.761333 191.08,132.332 C190.389333,131.902667 189.904,131.296 189.624,130.512 L189.624,130.512 L197.968,130.512 C198.117333,129.466667 198.192,128.729333 198.192,128.3 C198.192,126.097333 197.641333,124.440667 196.54,123.33 C195.438667,122.219333 193.936,121.664 192.032,121.664 C190.184,121.664 188.63,122.303333 187.37,123.582 C186.11,124.860667 185.48,126.629333 185.48,128.888 C185.48,131.016 186.128667,132.756667 187.426,134.11 C188.723333,135.463333 190.538667,136.14 192.872,136.14 Z M194.384,127.6 L189.456,127.6 C189.624,126.666667 189.96,125.962 190.464,125.486 C190.968,125.01 191.546667,124.772 192.2,124.772 C193.525333,124.772 194.253333,125.602667 194.384,127.264 L194.384,127.264 L194.384,127.6 Z M214.516,141.768 C215.094667,141.768 215.710667,141.656 216.364,141.432 L216.364,141.432 L216.364,137.652 C216.084,137.82 215.794667,137.904 215.496,137.904 C215.104,137.904 214.768,137.759333 214.488,137.47 C214.208,137.180667 214.068,136.812 214.068,136.364 C214.068,136.14 214.124,135.659333 214.236,134.922 C214.348,134.184667 214.404,133.592 214.404,133.144 C214.404,132.005333 214.082,131.034667 213.438,130.232 C212.794,129.429333 212.033333,128.972 211.156,128.86 C212.033333,128.748 212.794,128.295333 213.438,127.502 C214.082,126.708667 214.404,125.742667 214.404,124.604 C214.404,124.156 214.348,123.563333 214.236,122.826 C214.124,122.088667 214.068,121.608 214.068,121.384 C214.068,120.936 214.208,120.567333 214.488,120.278 C214.768,119.988667 215.104,119.844 215.496,119.844 C215.794667,119.844 216.084,119.928 216.364,120.096 L216.364,120.096 L216.364,116.316 C215.710667,116.092 215.094667,115.98 214.516,115.98 C213.209333,115.98 212.140667,116.456 211.31,117.408 C210.479333,118.36 210.064,119.564 210.064,121.02 C210.064,121.430667 210.12,121.990667 210.232,122.7 C210.344,123.409333 210.4,123.913333 210.4,124.212 C210.4,124.921333 210.185333,125.546667 209.756,126.088 C209.326667,126.629333 208.748,126.9 208.02,126.9 L208.02,126.9 L207.544,126.9 L207.544,130.848 L208.02,130.82 C208.748,130.82 209.326667,131.095333 209.756,131.646 C210.185333,132.196667 210.4,132.826667 210.4,133.536 C210.4,133.834667 210.344,134.338667 210.232,135.048 C210.12,135.757333 210.064,136.317333 210.064,136.728 C210.064,138.184 210.479333,139.388 211.31,140.34 C212.140667,141.292 213.209333,141.768 214.516,141.768 Z M164.172,174.224 C164.862667,174.224 165.450667,173.981333 165.936,173.496 C166.421333,173.010667 166.664,172.422667 166.664,171.732 C166.664,171.041333 166.421333,170.453333 165.936,169.968 C165.450667,169.482667 164.862667,169.24 164.172,169.24 C163.481333,169.24 162.893333,169.482667 162.408,169.968 C161.922667,170.453333 161.68,171.041333 161.68,171.732 C161.68,172.422667 161.922667,173.010667 162.408,173.496 C162.893333,173.981333 163.481333,174.224 164.172,174.224 Z M173.132,174.224 C173.822667,174.224 174.410667,173.981333 174.896,173.496 C175.381333,173.010667 175.624,172.422667 175.624,171.732 C175.624,171.041333 175.381333,170.453333 174.896,169.968 C174.410667,169.482667 173.822667,169.24 173.132,169.24 C172.441333,169.24 171.853333,169.482667 171.368,169.968 C170.882667,170.453333 170.64,171.041333 170.64,171.732 C170.64,172.422667 170.882667,173.010667 171.368,173.496 C171.853333,173.981333 172.441333,174.224 173.132,174.224 Z M182.092,174.224 C182.782667,174.224 183.370667,173.981333 183.856,173.496 C184.341333,173.010667 184.584,172.422667 184.584,171.732 C184.584,171.041333 184.341333,170.453333 183.856,169.968 C183.370667,169.482667 182.782667,169.24 182.092,169.24 C181.401333,169.24 180.813333,169.482667 180.328,169.968 C179.842667,170.453333 179.6,171.041333 179.6,171.732 C179.6,172.422667 179.842667,173.010667 180.328,173.496 C180.813333,173.981333 181.401333,174.224 182.092,174.224 Z M134.548,217.768 C135.854667,217.768 136.923333,217.292 137.754,216.34 C138.584667,215.388 139,214.184 139,212.728 C139,212.317333 138.944,211.757333 138.832,211.048 C138.72,210.338667 138.664,209.834667 138.664,209.536 C138.664,208.826667 138.878667,208.196667 139.308,207.646 C139.737333,207.095333 140.316,206.82 141.044,206.82 C141.230667,206.82 141.389333,206.829333 141.52,206.848 L141.52,206.848 L141.52,202.9 L141.044,202.9 C140.316,202.9 139.737333,202.629333 139.308,202.088 C138.878667,201.546667 138.664,200.921333 138.664,200.212 C138.664,199.913333 138.72,199.409333 138.832,198.7 C138.944,197.990667 139,197.430667 139,197.02 C139,195.564 138.584667,194.36 137.754,193.408 C136.923333,192.456 135.854667,191.98 134.548,191.98 C133.969333,191.98 133.353333,192.092 132.7,192.316 L132.7,192.316 L132.7,196.096 C132.98,195.928 133.269333,195.844 133.568,195.844 C133.96,195.844 134.296,195.988667 134.576,196.278 C134.856,196.567333 134.996,196.936 134.996,197.384 C134.996,197.608 134.94,198.088667 134.828,198.826 C134.716,199.563333 134.66,200.156 134.66,200.604 C134.66,201.742667 134.982,202.708667 135.626,203.502 C136.27,204.295333 137.030667,204.748 137.908,204.86 C137.030667,204.972 136.27,205.429333 135.626,206.232 C134.982,207.034667 134.66,208.005333 134.66,209.144 C134.66,209.592 134.716,210.184667 134.828,210.922 C134.94,211.659333 134.996,212.14 134.996,212.364 C134.996,212.812 134.856,213.180667 134.576,213.47 C134.296,213.759333 133.96,213.904 133.568,213.904 C133.269333,213.904 132.98,213.82 132.7,213.652 L132.7,213.652 L132.7,217.432 C133.353333,217.656 133.969333,217.768 134.548,217.768 Z" id="path-3"/>
        <path d="M333.034445,2.37663433 C335.011482,5.58445427 336,8.79224282 336,12 C336,15.2260742 335.254387,18.4521801 333.76316,21.6783177 C333.108876,23.0937878 331.691655,24 330.132283,24 L115.201478,24 L115.201478,24 C112.806434,22.4663937 111.608912,18.4663937 111.608912,12 C111.608912,5.53360629 112.806434,1.53360629 115.201478,0 L328.777931,0 C330.513029,3.87399137e-06 332.124085,0.899539213 333.034445,2.37663433 Z" id="path-4"/>
        <filter x="-4.7%" y="-43.8%" width="109.4%" height="187.5%" filterUnits="objectBoundingBox" id="filter-5">
            <feMorphology radius="0.5" operator="dilate" in="SourceAlpha" result="shadowSpreadOuter1"/>
            <feOffset dx="2" dy="2" in="shadowSpreadOuter1" result="shadowOffsetOuter1"/>
            <feGaussianBlur stdDeviation="2" in="shadowOffsetOuter1" result="shadowBlurOuter1"/>
            <feColorMatrix values="0 0 0 0 0.00392156863   0 0 0 0 0.00392156863   0 0 0 0 0.00392156863  0 0 0 1 0" type="matrix" in="shadowBlurOuter1" result="shadowMatrixOuter1"/>
            <feMorphology radius="0.5" operator="dilate" in="SourceAlpha" result="shadowSpreadOuter2"/>
            <feOffset dx="-2" dy="-2" in="shadowSpreadOuter2" result="shadowOffsetOuter2"/>
            <feGaussianBlur stdDeviation="2" in="shadowOffsetOuter2" result="shadowBlurOuter2"/>
            <feColorMatrix values="0 0 0 0 0.0934474779   0 0 0 0 0.0934474779   0 0 0 0 0.0934474779  0 0 0 0.2 0" type="matrix" in="shadowBlurOuter2" result="shadowMatrixOuter2"/>
            <feMerge>
                <feMergeNode in="shadowMatrixOuter1"/>
                <feMergeNode in="shadowMatrixOuter2"/>
            </feMerge>
        </filter>
        <path d="M48.964747,2.73693042 C52.8010556,0.153154338 55.1650756,-0.0571812813 57.4554526,0.00891192852 L57.859157,0.0230181104 C58.5316725,0.0498881554 59.2049346,0.09 59.9145286,0.09 C63.1786609,0.09 66.0854826,0.457025729 70.0622739,2.73693042 C72.7134681,4.25686688 75.1269594,6.39526282 77.3027479,9.15211823 L77.3027479,9.15211823 L78.3640728,17.5583154 L78.3640728,21.9017915 L77.6274761,24.9265231 L77.3654553,25.279954 C76.9457525,28.6584626 76.0351927,32.0626267 74.7306328,35.184066 C74.2312172,36.5195515 73.6487402,37.9788112 72.9825428,39.5612983 C72.2675617,40.4088194 71.5870842,41.1919245 70.9411105,41.9106138 C69.5946425,43.6996752 68.0822131,45.2153973 66.4409717,46.3411666 C65.9971668,46.6981239 65.5857408,46.9946483 65.2066283,47.2308456 C65.1921253,47.2398814 65.1775997,47.2488724 65.1630516,47.2578186 C64.8417712,48.4611515 64.7475287,49.6362613 64.8785931,50.7823396 C65.0121558,51.9502628 65.354162,52.8647572 65.904612,53.525823 L65.9073242,53.5239478 L66.1800004,53.2276022 C67.5010003,53.437465 68.7297625,53.6613672 69.8662869,53.8993089 L70.0622739,53.790256 C70.9951105,54.0068474 71.8687248,54.2253088 72.6831169,54.44564 C73.497509,54.6659712 74.3146374,54.9469226 75.1345023,55.2884942 L75.1397369,55.3324338 C76.1123276,55.6827602 76.9492546,56.0537359 77.6505179,56.4453608 C83.4560198,58.9671547 87.486751,60.5365368 89.7434061,61.1542797 C91.1290184,61.5335811 91.8265136,62.4262716 92.1607968,63.43459 C93.1766347,63.715652 93.9718408,63.7896337 94.336374,63.4727498 C95.0019652,62.8941602 97.4948793,61.5204544 101.815116,59.3516324 L102.476857,59.0203457 C105.591268,57.4653195 109.579795,55.5299424 114.442439,53.2142142 L115.214778,51.8193187 C115.393682,51.2846213 115.643095,50.7511213 115.963017,50.2188185 C116.282939,49.6865157 116.861078,48.8152664 117.697433,47.6050705 L117.697433,47.6050705 L119.958178,44.2786326 C120.579105,43.9542008 121.033911,43.8575288 121.322596,43.9886166 C121.611281,44.1197044 121.691506,44.4971329 121.563271,45.1209021 L121.563271,45.1209021 L120.02395,48.3224167 L119.833951,48.9400607 L121.050696,47.9774156 C124.277073,44.9382899 126.05028,43.2510481 126.370317,42.9156903 C126.850373,42.4126536 127.535752,42.4726467 127.720411,42.6287191 C127.90507,42.7847915 127.995264,43.2526978 127.489148,43.861318 C127.151738,44.2670648 125.353162,46.1117432 122.093422,49.3953532 C126.686538,46.4092759 129.122768,44.8125386 129.402112,44.6051413 C129.821128,44.2940454 130.37492,44.4381018 130.496945,44.6197484 C130.618969,44.8013949 130.664821,45.177171 130.111812,45.6616059 C129.743139,45.9845624 127.503973,47.7112398 123.394313,50.841638 C127.638632,48.1514916 129.882298,46.7805914 130.125312,46.7289373 C130.489832,46.6514562 131.12467,46.7310426 131.245607,46.9704037 C131.366544,47.2097647 131.442732,47.5750767 130.782978,48.030603 C130.343142,48.3342872 128.131558,49.8945566 124.148225,52.7114112 C127.392537,50.6756708 129.197212,49.6190051 129.562249,49.541414 C130.109806,49.4250273 130.593933,49.2637301 130.730794,49.5775082 C130.867655,49.8912863 130.886131,50.3767494 130.071301,51.0199178 C129.528081,51.4486967 127.492263,52.8356305 123.963846,55.1807193 C122.411327,57.0145008 120.895923,58.1364236 119.417634,58.546488 C118.785953,58.7217106 118.212379,58.8014729 117.696911,58.785775 C106.096636,65.3993083 99.7061234,69.0973813 98.5246841,69.8797064 C97.2294685,70.7373718 93.8496248,73.324962 89.4496975,73.5985659 L88.9298627,73.7299164 C88.8093336,73.7842968 88.6373316,73.828058 88.365709,73.8723014 C87.6909936,73.9822027 84.907914,73.2904393 80.0164703,71.7970114 C79.7115094,71.3873879 79.4358339,70.9849631 79.1894438,70.5897372 C79.0064774,71.9254865 78.806205,73.3597001 78.5939051,74.8842824 L77.7034608,82.008312 L77.0931003,87.444882 L76.2027661,97.11 L76.1623373,97.868733 L76.1254608,97.620312 L75.301668,108.654076 C75.1378729,108.733273 74.9754154,108.810214 74.8142957,108.884899 C74.5583253,109.044955 74.285422,109.196129 73.9956039,109.338046 L73.9433176,135.708391 C75.9296977,153.925117 76.9362936,163.641019 76.9631055,164.856096 C77.0035927,165.220078 77.0449108,165.588144 77.0866283,165.959609 C76.539217,166.242259 76.0165573,166.458145 75.5186491,166.607266 L75.4784585,167.116599 C75.7169466,167.175754 75.9501694,167.256747 76.1751025,167.358913 C76.2605725,167.397734 76.3300433,167.464838 76.371803,167.548911 C76.4150031,167.635884 76.4242961,167.730852 76.4047323,167.818796 L76.4807628,167.777754 L76.4807628,173.594177 C81.2751223,179.046567 83.7023021,182.20468 83.7623021,183.068517 C83.7805254,183.330884 83.7776303,183.60459 83.7482139,183.87579 L83.7736944,183.79641 L83.7135644,184.499396 C83.5894803,185.124816 83.2178751,185.58966 82.5987488,185.893929 C82.4709493,185.956735 82.3816307,186.002997 82.22905,186.050204 C81.9077998,186.149596 81.3167325,186.209176 80.4558481,186.228943 C80.3048458,186.234175 80.1499736,186.236797 79.9907945,186.236071 L79.856347,186.23619 C78.9865066,186.22038 78.3205873,186.158385 77.8585892,186.050204 C77.396591,185.942024 76.7650014,185.732774 75.9638202,185.422454 C75.0530695,184.955777 74.402561,184.574804 74.0122946,184.279537 C73.6220283,183.984269 73.1667704,183.56506 72.6465212,183.021909 C72.2729573,182.612913 71.9214336,182.225562 71.5919503,181.859856 C71.0243997,181.254249 70.4165405,180.566502 69.7697919,179.798421 C69.6610256,179.671797 69.5584794,179.551834 69.4605371,179.436393 C68.769969,178.622444 67.8298645,177.429194 66.6402238,175.856642 L66.4193328,175.564499 L66.4193328,175.564499 L66.1966283,175.268087 L66.1966283,174.834474 L66.2166294,174.858792 L66.2166294,174.858792 L66.5603854,167.777754 C66.6862621,167.842523 66.8121285,167.90487 66.9379844,167.964794 L66.7653864,167.867845 C66.7054621,167.834354 66.6566764,167.784023 66.6250698,167.723084 C66.5358349,167.551035 66.6029694,167.339222 66.7750189,167.249987 C66.991128,167.1379 67.2209262,167.05674 67.4576843,167.008123 L67.4931708,166.600543 C66.4780711,166.32234 65.7786317,166.040453 65.6953374,165.975026 C65.5312076,165.846103 64.7004412,155.923402 63.8808249,145.568563 L63.7784799,144.272635 C62.9269065,133.465762 62.1180752,122.61324 62.1180752,122.296348 C62.1180752,121.662564 61.4693589,118.836949 59.5597669,118.836949 C58.6988043,118.836949 57.9845172,119.409968 57.4596583,120.098001 C57.455392,120.128033 57.4440012,120.165304 57.4272821,120.208422 C57.3103574,120.350058 57.2169004,120.464502 57.146911,120.551756 L57.1548286,120.541832 C57.1418391,120.562805 57.1290198,120.583795 57.1163717,120.604789 C56.7061113,121.48037 56.4751919,129.332058 56.4751919,129.332058 C56.4751919,129.332058 56.1267734,134.122443 55.4299362,143.703212 L55.4299362,143.703212 L53.4102096,163.691204 C53.2895533,165.136441 53.1509969,165.914902 52.9945403,166.026586 C52.7889171,166.173367 52.5903254,166.259517 52.4011768,166.297219 C52.1783996,166.384265 51.9005704,166.475459 51.5826148,166.564233 L51.6212991,166.86431 C52.0447567,166.863563 52.4622187,166.964962 52.8382377,167.159987 C53.0102871,167.249222 53.0774216,167.461035 52.9881868,167.633084 C52.9565802,167.694023 52.9077944,167.744354 52.8478701,167.777845 L52.8478701,167.777845 L52.6752721,167.874794 C52.8011281,167.81487 52.9269944,167.752523 53.0528711,167.687754 L53.0528711,167.687754 L53.3966271,174.768792 L53.3966271,174.768792 L53.4166283,174.744474 L53.4166283,175.178087 L53.1939238,175.474499 L53.1939238,175.474499 L52.9730328,175.766642 C51.7833921,177.339194 50.8432876,178.532444 50.1527194,179.346393 C50.0547771,179.461834 49.952231,179.581797 49.8434646,179.708421 C49.1967161,180.476502 48.5888568,181.164249 48.0213063,181.769856 C47.6918229,182.135562 47.3402993,182.522913 46.9667353,182.931909 C46.4464861,183.47506 45.9912283,183.894269 45.6009619,184.189537 C45.2106955,184.484804 44.560187,184.865777 43.6494363,185.332454 C42.8482552,185.642774 42.2166655,185.852024 41.7546674,185.960204 C41.2926692,186.068385 40.6267499,186.13038 39.7569095,186.14619 L39.7569095,186.14619 L39.622462,186.146071 C39.4632829,186.146797 39.3084108,186.144175 39.1574084,186.138943 C38.296524,186.119176 37.7054567,186.059596 37.3842065,185.960204 C37.2316259,185.912997 37.1423073,185.866735 37.0145078,185.803929 C36.3953815,185.49966 36.0237763,185.034816 35.8996921,184.409396 L35.8996921,184.409396 L35.8395621,183.70641 L35.8650426,183.78579 C35.8356262,183.51459 35.8327311,183.240884 35.8509544,182.978517 C35.9109544,182.11468 38.3381342,178.956567 43.1324938,173.504177 L43.1324938,173.504177 L43.1324938,167.687754 L43.2085242,167.728796 C43.1889605,167.640852 43.1982535,167.545884 43.2414535,167.458911 C43.2832132,167.374838 43.352684,167.307734 43.438154,167.268913 C43.4969844,167.242192 43.5563819,167.216919 43.6162923,167.193106 L43.572345,166.695399 C43.5493915,166.628856 43.5308193,166.559824 43.5166283,166.488304 L43.5166283,166.488304 L43.5544608,166.486312 L43.5280669,166.189206 C42.7973877,165.680857 42.3259544,165.146244 42.2147766,165.008019 L42.1961087,164.98409 C42.190361,164.976346 42.1869533,164.919368 42.1858857,164.813154 L42.1863476,164.582842 C42.2063157,162.563406 42.5877427,152.938589 43.3306287,135.708391 L43.3306287,135.708391 L42.6892349,109.428665 C42.0211138,109.168225 41.371223,108.876286 40.7395626,108.552848 L40.7395626,108.552848 L40.7394608,97.129312 L40.6926516,97.432313 L40.4781373,97.5275195 L39.6026347,88.5846486 L39.0442687,83.5561479 L39.0864608,83.085312 L38.931414,81.922197 C38.8171735,81.2669971 38.7060571,80.625696 38.5980647,79.9982937 L38.5987166,80.0131472 L37.1084608,71.256312 L37.0835785,71.2647041 C32.5643426,72.6364154 29.9316997,73.2907861 29.18565,73.2278163 L29.1263231,73.2206621 C28.8547005,73.1764188 28.6826986,73.1326575 28.5621695,73.0782771 L28.0383323,72.9466771 C23.6403578,72.6717536 20.2621709,70.0854725 18.9673481,69.2280671 C17.7341767,68.4114861 14.0120803,61.6722984 7.80105886,49.0105041 C7.15983172,48.7976569 6.51383178,48.3593562 5.86262547,47.6966019 C4.78742153,46.6023311 4.03600463,44.8730154 3.60837479,42.5086548 C1.72522081,38.71354 0.655617353,36.4945109 0.399564426,35.8515675 C0.0154850362,34.8871523 0.274217475,34.475967 0.54963142,34.2726576 C0.825045366,34.0693482 1.16366366,34.4510995 1.57966792,34.8256715 C1.8570041,35.0753861 2.89156552,36.8928229 4.68335219,40.2779819 C2.64211177,35.8468476 1.50695806,33.3898224 1.27789108,32.9069062 C0.934290593,32.1825319 1.18292727,31.9042564 1.40734246,31.7574323 C1.63175764,31.6106082 2.22133697,31.8591034 2.49828005,32.1084641 C2.68290876,32.2747045 3.94053069,34.5837721 6.27114581,39.0356668 C4.27727485,34.2698324 3.20143849,31.6549027 3.04363673,31.1908777 C2.80693411,30.4948402 3.03453118,30.1923345 3.23103078,30.0960363 C3.42753038,29.999738 3.97915668,30.1518775 4.18648752,30.6308027 L4.21509028,30.6938149 C4.455448,31.2092646 5.75738206,33.7891906 8.12089246,38.4335927 C6.93967967,33.960033 6.30440699,31.463207 6.2150744,30.9431148 C6.08107553,30.1629764 6.39313868,29.8028544 6.63109415,29.7600212 C6.86904963,29.717188 7.49260172,30.007922 7.65682389,30.6835924 C7.75635247,31.0930897 8.33731925,33.0706455 9.39972423,36.6162599 L9.6186244,37.3462902 C9.65617763,37.4714465 9.69426578,37.5983451 9.73288887,37.726986 L10.3052979,39.1690334 L10.4495763,38.5391386 L10.7172425,34.9968851 C10.9180724,34.3925677 11.1762635,34.1058175 11.4918156,34.1366345 C11.8073678,34.1674515 12.1529053,34.4785749 12.5284282,35.0700046 L12.8230721,39.0811569 C12.9422791,40.547395 13.0073372,41.5909885 13.0182465,42.2119372 C13.0291557,42.832886 12.9784037,43.4196171 12.8659904,43.9721306 L12.8306081,45.9103073 C12.6559109,46.1929201 12.5036255,46.4551738 12.3737518,46.6970683 C18.4459975,56.4760316 22.0394616,61.8508157 23.1556581,62.8211106 C23.5201913,63.1379944 24.3153975,63.0640127 25.3309325,62.7839248 C25.6650561,61.7752243 26.3625543,60.8820676 27.7486261,60.5026405 C29.9190826,59.9084938 33.6636989,58.3598051 38.9824749,55.8565746 C39.7554255,55.4177261 40.6485446,55.0348066 41.662356,54.7065356 L41.6759251,54.5627333 C42.3185293,54.3077122 42.974997,54.1022558 43.6453283,53.9463641 C44.2709708,53.8008652 45.3695581,53.6625245 46.9410901,53.531342 L47.285086,53.5033411 L47.3664608,53.544312 L47.7913841,53.5033411 L47.7889329,53.5152745 C49.6686788,53.323493 51.7602015,53.2276022 54.0635012,53.2276022 C54.1431649,53.3558817 54.222827,53.4813386 54.3024874,53.6039728 C54.9053524,52.6876774 55.240614,51.747422 55.3099077,50.7823396 C55.3753006,49.871585 55.2213367,48.6948585 54.8480161,47.2521599 C48.0029228,43.7860736 43.0332733,33.7353188 42.2751025,24.2946431 L40.9668699,20.1909764 C40.9065649,18.4358691 41.0796746,15.9106486 41.486199,12.615315 C41.5318335,12.2453964 40.8348272,10.7793298 40.9668699,10.4639688 C41.0445344,10.2784805 40.8731783,10.7506618 41.486199,11.0911975 C41.7488624,11.2371081 42.141584,9.95287265 42.1718753,9.88235773 C42.5422391,9.02018957 43.0412829,7.98918541 43.3659933,7.41479495 C43.4562382,7.25515782 42.0774306,7.31680856 42.1718753,7.17538988 C42.2955721,6.99017004 43.5674018,6.68814209 43.7027326,6.5265925 C44.7134359,5.32007699 46.1186481,4.65379447 48.964747,2.73693042 Z" id="path-6"/>
        <filter x="-9.2%" y="-6.4%" width="118.3%" height="112.9%" filterUnits="objectBoundingBox" id="filter-7">
            <feMorphology radius="1" operator="dilate" in="SourceAlpha" result="shadowSpreadOuter1"/>
            <feOffset dx="2" dy="2" in="shadowSpreadOuter1" result="shadowOffsetOuter1"/>
            <feGaussianBlur stdDeviation="2" in="shadowOffsetOuter1" result="shadowBlurOuter1"/>
            <feColorMatrix values="0 0 0 0 0.00392156863   0 0 0 0 0.00392156863   0 0 0 0 0.00392156863  0 0 0 1 0" type="matrix" in="shadowBlurOuter1" result="shadowMatrixOuter1"/>
            <feMorphology radius="1" operator="dilate" in="SourceAlpha" result="shadowSpreadOuter2"/>
            <feOffset dx="-2" dy="-2" in="shadowSpreadOuter2" result="shadowOffsetOuter2"/>
            <feGaussianBlur stdDeviation="2" in="shadowOffsetOuter2" result="shadowBlurOuter2"/>
            <feColorMatrix values="0 0 0 0 0.0934474779   0 0 0 0 0.0934474779   0 0 0 0 0.0934474779  0 0 0 0.2 0" type="matrix" in="shadowBlurOuter2" result="shadowMatrixOuter2"/>
            <feMerge>
                <feMergeNode in="shadowMatrixOuter1"/>
                <feMergeNode in="shadowMatrixOuter2"/>
            </feMerge>
        </filter>
    </defs>
    <g id="ByteCamp-Info-dark" stroke="none" stroke-width="1" fill="none" fill-rule="evenodd">
        <rect fill="#2E2E2E" x="0" y="0" width="367" height="261"/>
        <g id="Group-11" transform="translate(16.000000, 14.000000)">
            <g id="Path-3">
                <use fill="black" fill-opacity="1" filter="url(#filter-2)" xlink:href="#path-1"/>
                <use fill="#2E2E2E" fill-rule="evenodd" xlink:href="#path-1"/>
            </g>
            <g id="if{…}else{…}" fill-rule="nonzero" fill="#FFFFFF">
                <use xlink:href="#path-3"/>
                <use xlink:href="#path-3"/>
            </g>
            <g id="Path-4">
                <use fill="black" fill-opacity="1" filter="url(#filter-5)" xlink:href="#path-4"/>
                <use fill="#2E2E2E" fill-rule="evenodd" xlink:href="#path-4"/>
            </g>
            <g id="Alan-Copy" transform="translate(0.000000, 43.000000)">
                <g id="Alan-Body" transform="translate(0.267117, 0.000000)">
                    <g id="Combined-Shape" transform="translate(0.732883, 0.000000)">
                        <use fill="black" fill-opacity="1" filter="url(#filter-7)" xlink:href="#path-6"/>
                        <use fill="#2E2E2E" fill-rule="evenodd" xlink:href="#path-6"/>
                    </g>
                    <g id="Body" transform="translate(121.732883, 78.000000)"/>
                    <g id="Right-Arm" transform="translate(57.475738, 55.344989) rotate(-2.000000) translate(-57.475738, -55.344989) translate(34.975738, 29.344989)"/>
                    <g id="Right-Arm-Copy" transform="translate(143.920708, 63.201761) scale(-1, 1) rotate(-2.000000) translate(-143.920708, -63.201761) translate(115.420708, 41.201761)"/>
                    <g id="Head" transform="translate(79.952595, 2.000000)"/>
                </g>
            </g>
        </g>
    </g>
</svg>