<svg xmlns="http://www.w3.org/2000/svg" xmlns:xlink="http://www.w3.org/1999/xlink" width="367px" height="261px" viewBox="0 0 367 261" version="1.1">
    <title>UBCLaunchPad-Info-dark</title>
    <defs>
        <rect id="path-1" x="0" y="0" width="343" height="234" rx="8"/>
        <filter x="-3.1%" y="-4.5%" width="106.1%" height="109.0%" filterUnits="objectBoundingBox" id="filter-2">
            <feMorphology radius="0.5" operator="dilate" in="SourceAlpha" result="shadowSpreadOuter1"/>
            <feOffset dx="2" dy="2" in="shadowSpreadOuter1" result="shadowOffsetOuter1"/>
            <feGaussianBlur stdDeviation="2" in="shadowOffsetOuter1" result="shadowBlurOuter1"/>
            <feColorMatrix values="0 0 0 0 0.00392156863   0 0 0 0 0.00392156863   0 0 0 0 0.00392156863  0 0 0 1 0" type="matrix" in="shadowBlurOuter1" result="shadowMatrixOuter1"/>
            <feMorphology radius="0.5" operator="dilate" in="SourceAlpha" result="shadowSpreadOuter2"/>
            <feOffset dx="-2" dy="-2" in="shadowSpreadOuter2" result="shadowOffsetOuter2"/>
            <feGaussianBlur stdDeviation="2" in="shadowOffsetOuter2" result="shadowBlurOuter2"/>
            <feColorMatrix values="0 0 0 0 0.0934474779   0 0 0 0 0.0934474779   0 0 0 0 0.0934474779  0 0 0 0.2 0" type="matrix" in="shadowBlurOuter2" result="shadowMatrixOuter2"/>
            <feMerge>
                <feMergeNode in="shadowMatrixOuter1"/>
                <feMergeNode in="shadowMatrixOuter2"/>
            </feMerge>
        </filter>
        <path d="M121.944383,222 C128.671858,222 134.011123,220.161376 137.96218,216.484127 C141.913237,212.806878 143.888765,207.47619 143.888765,200.492063 L143.888765,200.492063 L143.888765,167.714286 L131.555061,167.714286 L131.555061,200.571429 C131.555061,207.449735 128.351502,210.888889 121.944383,210.888889 C115.537264,210.888889 112.333704,207.582011 112.333704,200.968254 L112.333704,200.968254 L112.333704,167.714286 L100,167.714286 L100,201.047619 C100,207.714286 102.002225,212.873016 106.006674,216.52381 C110.011123,220.174603 115.323693,222 121.944383,222 Z M178.086763,221.206349 C183.372636,221.206349 187.550612,219.843915 190.62069,217.119048 C193.690768,214.39418 195.225806,210.915344 195.225806,206.68254 C195.225806,200.174603 192.102336,195.994709 185.855395,194.142857 C188.258065,193.402116 190.206897,191.973545 191.701891,189.857143 C193.196885,187.740741 193.944383,185.280423 193.944383,182.47619 C193.944383,178.190476 192.395996,174.65873 189.299221,171.880952 C186.202447,169.103175 181.690768,167.714286 175.764182,167.714286 L175.764182,167.714286 L154.780868,167.714286 L154.780868,221.206349 L178.086763,221.206349 Z M171.679644,189.460317 L167.114572,189.460317 L167.114572,177.47619 L173.681869,177.47619 C178.807564,177.47619 181.370412,179.354497 181.370412,183.111111 C181.370412,185.015873 180.556174,186.550265 178.927697,187.714286 C177.299221,188.878307 174.883204,189.460317 171.679644,189.460317 L171.679644,189.460317 Z M173.60178,211.444444 L167.114572,211.444444 L167.114572,199.063492 L173.681869,199.063492 C179.715239,199.063492 182.731924,201.126984 182.731924,205.253968 C182.731924,209.380952 179.688543,211.444444 173.60178,211.444444 L173.60178,211.444444 Z M229.904338,221.84127 C236.044494,221.84127 240.743048,220.835979 244,218.825397 L244,218.825397 L244,206.84127 C240.422692,209.380952 236.124583,210.650794 231.105673,210.650794 C226.460512,210.650794 222.669633,209.208995 219.733037,206.325397 C216.79644,203.441799 215.328142,199.539683 215.328142,194.619048 C215.328142,189.592593 216.79644,185.584656 219.733037,182.595238 C222.669633,179.60582 226.300334,178.111111 230.625139,178.111111 C235.537264,178.111111 239.995551,179.328042 244,181.761905 L244,181.761905 L244,170.015873 C240.743048,168.005291 236.07119,167 229.984427,167 C221.708565,167 214.994438,169.566138 209.842047,174.698413 C204.689655,179.830688 202.113459,186.470899 202.113459,194.619048 C202.113459,202.661376 204.769744,209.208995 210.082314,214.261905 C215.394883,219.314815 222.002225,221.84127 229.904338,221.84127 Z" id="path-3"/>
        <filter x="-5.2%" y="-13.6%" width="110.4%" height="127.3%" filterUnits="objectBoundingBox" id="filter-4">
            <feOffset dx="2" dy="2" in="SourceAlpha" result="shadowOffsetOuter1"/>
            <feGaussianBlur stdDeviation="1.5" in="shadowOffsetOuter1" result="shadowBlurOuter1"/>
            <feColorMatrix values="0 0 0 0 0.00392156863   0 0 0 0 0.00392156863   0 0 0 0 0.00392156863  0 0 0 1 0" type="matrix" in="shadowBlurOuter1" result="shadowMatrixOuter1"/>
            <feOffset dx="-2" dy="-2" in="SourceAlpha" result="shadowOffsetOuter2"/>
            <feGaussianBlur stdDeviation="1.5" in="shadowOffsetOuter2" result="shadowBlurOuter2"/>
            <feColorMatrix values="0 0 0 0 0.0934474779   0 0 0 0 0.0934474779   0 0 0 0 0.0934474779  0 0 0 0.2 0" type="matrix" in="shadowBlurOuter2" result="shadowMatrixOuter2"/>
            <feMerge>
                <feMergeNode in="shadowMatrixOuter1"/>
                <feMergeNode in="shadowMatrixOuter2"/>
            </feMerge>
        </filter>
        <path d="M41.4659842,124.044683 L40.1219035,130.612284 L26.7802295,130.612284 L25.0347959,124.044683 L41.4659842,124.044683 Z M60.2079757,94.5140395 L68.1674411,101.245948 L67.4076507,130.612284 L54.6787769,120.144348 L60.2079757,94.5140395 Z M7.32952514,93.9548983 L12.5170529,120.718129 L-3.41060513e-13,130.137559 L-3.41060513e-13,101.701876 L7.32952514,93.9548983 Z M33.5401114,109.71971 C41.450386,109.71971 47.7654031,110.527567 52.4851627,112.143282 L52.4851627,112.143282 L50.3852447,120.144348 L50.3852447,120.144348 L15.7254123,120.144348 L14.1284552,112.143282 C19.1592848,110.527567 25.6298368,109.71971 33.5401114,109.71971 Z M18.0729869,93.9548983 L19.6286013,107.225247 C18.5569871,107.39959 17.6512162,107.567561 16.9112888,107.729159 C16.1713613,107.890758 15.0750489,108.160037 13.6223517,108.536997 L13.6223517,108.536997 L11.2101613,95.0289419 C12.7347091,94.7105245 13.8808233,94.4912441 14.6485039,94.3711008 C15.4161845,94.2509575 16.5576788,94.1122234 18.0729869,93.9548983 L18.0729869,93.9548983 Z M49.6329179,93.9548983 C51.2083178,94.1422912 52.379858,94.2960593 53.1475386,94.4162025 C53.9152192,94.5363458 54.8602313,94.7940606 55.982575,95.1893468 L53.8599023,108.536997 C52.6163974,108.190105 51.6246812,107.935859 50.8847537,107.774261 C50.1448262,107.612663 49.096993,107.379307 47.7412539,107.074194 L49.6329179,93.9548983 Z M34.3603324,92.9759642 C39.3043654,92.9902357 43.2162748,93.1757659 46.0960605,93.5325548 L46.0960605,93.5325548 L44.1996563,106.578375 C41.1287331,106.27093 37.667016,106.117208 33.8145051,106.117208 C29.9619942,106.117208 26.3853134,106.27093 23.0844626,106.578375 L23.0844626,106.578375 L21.5329497,93.5325548 C24.4293233,93.1608997 28.4973242,92.9750722 33.7369527,92.9750722 Z M51.4300279,80.1276295 C52.8048562,80.3977275 53.8440664,80.6182799 54.5476585,80.7892867 C55.2512505,80.9602936 56.2857743,81.2437588 57.6512297,81.6396823 L57.6512297,81.6396823 L56.3744587,91.8942566 C54.9816609,91.4924425 53.9343948,91.2135837 53.2326605,91.0576801 C52.5309261,90.9017764 51.4762309,90.7136447 50.0685748,90.4932848 L50.0685748,90.4932848 Z M15.856869,80.1276295 L17.2493574,90.5189375 C16.1976984,90.6434665 15.2404395,90.7692336 14.3775806,90.8962389 C14.3112069,90.9060086 14.2424567,90.9162175 14.17133,90.9268659 L13.7160522,90.9960278 C12.9097266,91.1200846 11.8657543,91.2880753 10.5841352,91.5 L10.5841352,91.5 L9.01955961,81.3872531 C10.4177903,81.0646914 11.5568651,80.8240062 12.4367842,80.6651977 C13.3167032,80.5063892 14.4567315,80.3271998 15.856869,80.1276295 L15.856869,80.1276295 Z M33.6674411,78.2549653 C39.1213211,78.2549653 43.812592,78.6349194 47.7412539,79.3948277 L47.7412539,79.3948277 L46.2633436,90.1157173 C40.8650137,89.7686197 36.6488893,89.5950709 33.6149703,89.5950709 L33.2452484,89.595904 C30.2422608,89.6092325 26.1541684,89.7825036 20.9809712,90.1157173 L20.9809712,90.1157173 L19.338969,79.3948277 C23.4374038,78.6349194 28.2135611,78.2549653 33.6674411,78.2549653 Z M33.6674411,-3.33955086e-12 L33.6674411,5.0869504 C43.4639985,15.1827284 49.9445496,24.9352075 53.1090945,34.3443877 C56.2736394,43.7535679 57.8559119,58.2391665 57.8559119,77.8011834 C50.1448546,75.7518533 42.5245102,74.7271882 34.9948787,74.7271882 C27.4652472,74.7271882 18.6942415,75.7518533 8.68186151,77.8011834 C9.4189243,58.6937608 11.4401287,44.2081622 14.7454746,34.3443877 C17.9681868,24.7272076 23.5665047,15.2158277 31.5404281,5.81024786 L32.1584924,5.0869504 L32.1584924,-3.33955086e-12 L33.6674411,-3.33955086e-12 Z M33.6674411,30 C27.3161665,30 22.1674411,35.1487254 22.1674411,41.5 C22.1674411,47.8512746 27.3161665,53 33.6674411,53 C40.0187157,53 45.1674411,47.8512746 45.1674411,41.5 C45.1674411,35.1487254 40.0187157,30 33.6674411,30 Z M33.6674411,32 C38.9141462,32 43.1674411,36.2532949 43.1674411,41.5 C43.1674411,46.7467051 38.9141462,51 33.6674411,51 C28.420736,51 24.1674411,46.7467051 24.1674411,41.5 C24.1674411,36.2532949 28.420736,32 33.6674411,32 Z" id="path-5"/>
        <filter x="-15.4%" y="-8.0%" width="130.8%" height="116.9%" filterUnits="objectBoundingBox" id="filter-6">
            <feMorphology radius="0.5" operator="dilate" in="SourceAlpha" result="shadowSpreadOuter1"/>
            <feOffset dx="2" dy="2" in="shadowSpreadOuter1" result="shadowOffsetOuter1"/>
            <feGaussianBlur stdDeviation="2" in="shadowOffsetOuter1" result="shadowBlurOuter1"/>
            <feColorMatrix values="0 0 0 0 0.00392156863   0 0 0 0 0.00392156863   0 0 0 0 0.00392156863  0 0 0 1 0" type="matrix" in="shadowBlurOuter1" result="shadowMatrixOuter1"/>
            <feMorphology radius="0.5" operator="dilate" in="SourceAlpha" result="shadowSpreadOuter2"/>
            <feOffset dx="-2" dy="-2" in="shadowSpreadOuter2" result="shadowOffsetOuter2"/>
            <feGaussianBlur stdDeviation="2" in="shadowOffsetOuter2" result="shadowBlurOuter2"/>
            <feColorMatrix values="0 0 0 0 0.0934474779   0 0 0 0 0.0934474779   0 0 0 0 0.0934474779  0 0 0 0.2 0" type="matrix" in="shadowBlurOuter2" result="shadowMatrixOuter2"/>
            <feMerge>
                <feMergeNode in="shadowMatrixOuter1"/>
                <feMergeNode in="shadowMatrixOuter2"/>
            </feMerge>
        </filter>
    </defs>
    <g id="UBCLaunchPad-Info-dark" stroke="none" stroke-width="1" fill="none" fill-rule="evenodd">
        <g id="Group-14" transform="translate(12.000000, 14.000000)">
            <g id="Rectangle">
                <use fill="black" fill-opacity="1" filter="url(#filter-2)" xlink:href="#path-1"/>
                <use fill="#2E2E2E" fill-rule="evenodd" xlink:href="#path-1"/>
            </g>
            <circle id="Oval" fill="#C50C0A" cx="10" cy="9" r="4"/>
            <circle id="Oval-Copy-2" fill="#FFD315" cx="21" cy="9" r="4"/>
            <circle id="Oval-Copy-3" fill="#7EC50A" cx="32" cy="9" r="4"/>
            <g id="UBC" fill-rule="nonzero">
                <use fill="black" fill-opacity="1" filter="url(#filter-4)" xlink:href="#path-3"/>
                <use fill="#2E2E2E" xlink:href="#path-3"/>
            </g>
            <g id="Combined-Shape" transform="translate(137.832559, 23.000000)">
                <use fill="black" fill-opacity="1" filter="url(#filter-6)" xlink:href="#path-5"/>
                <use fill="#2E2E2E" fill-rule="evenodd" xlink:href="#path-5"/>
            </g>
        </g>
    </g>
</svg>