<?xml version="1.0" encoding="UTF-8"?>
<svg width="49px" height="56px" viewBox="0 0 49 56" version="1.1" xmlns="http://www.w3.org/2000/svg" xmlns:xlink="http://www.w3.org/1999/xlink">
    <title>ByteCamp</title>
    <defs>
        <filter x="-9.3%" y="-8.0%" width="118.6%" height="116.0%" filterUnits="objectBoundingBox" id="filter-1">
            <feOffset dx="0" dy="1" in="SourceAlpha" result="shadowOffsetOuter1"></feOffset>
            <feGaussianBlur stdDeviation="0.5" in="shadowOffsetOuter1" result="shadowBlurOuter1"></feGaussianBlur>
            <feColorMatrix values="0 0 0 0 0   0 0 0 0 0   0 0 0 0 0  0 0 0 0.5 0" type="matrix" in="shadowBlurOuter1" result="shadowMatrixOuter1"></feColorMatrix>
            <feMerge>
                <feMergeNode in="shadowMatrixOuter1"></feMergeNode>
                <feMergeNode in="SourceGraphic"></feMergeNode>
            </feMerge>
        </filter>
    </defs>
    <g id="Page-1" stroke="none" stroke-width="1" fill="none" fill-rule="evenodd">
        <g id="Desktop-HD" transform="translate(-249.000000, -4137.000000)" fill-rule="nonzero">
            <g id="ByteCamp" filter="url(#filter-1)" transform="translate(252.000000, 4140.000000)">
                <path d="M11.4745099,2.62535044 C3.56337638,5.59846624 2.12316832,6.25958754 0.102753804,7.81548012 C0.340712242,8.21388407 0.654477772,9.07911039 0.888390955,9.47403444 C6.63297393,19.1719715 11.0735716,27.3515344 13.9732879,34.9054476 C16.0710302,40.3699723 19.1265327,45.2116545 20.0606843,47.5385531 L21.5121021,47.0493697 L21.6774701,48.2715239 C25.1824638,47.4365347 34.1336761,46.316662 34.1872392,46.316662 C34.0591654,45.7477238 33.9303996,45.3209153 33.8038563,44.7035023 L35.6918496,44.3132863 L37.1218617,42.9780502 C37.0276999,42.3788456 36.9678399,41.81058 36.8692624,41.1921824 C37.5847265,40.9912649 37.9919033,41.3558934 38.731639,41.1804853 C38.6744206,40.4849745 38.5474484,39.5691874 38.5311504,38.754941 C39.3014253,38.524303 39.7908913,38.4832559 40.4717223,38.2859352 C40.4419921,37.784928 41.0598048,36.9061135 41.0219256,35.8692514 C40.822246,35.3522874 40.6926224,35.2155188 40.6359986,35.0861389 C40.11844,35.2125848 39.1712461,35.4024876 38.383406,35.630367 C38.3257002,35.6471328 38.5350689,34.3787945 38.4830752,33.7329379 C38.3001712,33.2701706 38.045174,32.9649927 38.045174,32.9649927 C38.045174,32.9649927 36.737465,33.336386 36.152531,33.4802606 C36.091511,33.0778992 36.2554267,32.0479774 36.2339235,31.6711741 C36.1412238,31.493719 35.9427334,31.1916896 35.825265,30.8957134 C35.4248044,31.0092925 34.1929708,31.2557021 34.1929708,31.2557021 C34.1929708,31.2557021 34.1502763,30.9925754 34.1226906,30.6960533 C41.0947792,24.6860139 44.4346485,12.2325276 39.5609649,5.18846265 C37.8450947,2.94953616 35.3716994,1.29429602 32.6326528,0.625854279 C27.5290233,-0.358146553 19.3859066,-0.347872581 11.4747828,2.62527246 L11.4745099,2.62535044 Z M26.4164321,13.0210305 C27.1500268,13.0288286 27.8870527,13.1032028 28.6268859,13.2717388 C32.7358311,14.9142583 32.961644,21.1096581 31.3683792,24.6114838 C29.5767019,28.5715442 24.6695158,29.7977437 20.9400641,30.8628835 C19.4821837,25.868047 17.57605,18.6983453 16.0099809,15.3622776 C18.9509102,14.4548051 23.237525,12.9940979 26.4164321,13.0210305 Z M29.0154642,34.4802573 L29.0154642,34.4808324 C29.1384205,34.8999695 29.2909022,35.6238166 29.2909022,35.6238166 L31.6036083,35.1218444 L31.9415478,36.5841502 L34.0140633,36.0191695 C34.3317766,37.8956705 34.955048,40.482791 35.0442872,40.6272407 L33.8596418,40.8884764 C33.1732645,41.044789 32.2144417,41.265231 31.7282703,41.3783226 L30.8441434,41.5842992 L31.0519915,42.4854649 L31.2601515,43.3866209 L30.80913,43.4911249 C30.5612291,43.5487332 29.1681214,43.8724705 27.7128436,44.2113459 C26.2575755,44.5502505 25.0438139,44.8277549 25.0159845,44.8277549 C24.9208479,44.8277549 24.8570304,44.3519648 23.3869069,39.9038517 C23.005883,38.7508275 22.0556283,36.4110328 22.0556283,36.4110328 C22.2563022,36.3542043 22.6352694,36.2503339 22.8822346,36.1810674 C22.9099178,36.1732694 22.9376985,36.1643016 22.9650893,36.1573808 C25.2709428,35.5117972 29.0154252,34.4802573 29.0154252,34.4802573 L29.0154642,34.4802573 Z" id="path4541" fill="#4DB546"></path>
                <path d="M12.2038254,4.33366627 C4.84281725,7.14114108 2.85249358,7.96789361 0.832079063,9.52384468 C6.91387055,19.7055941 11.8337187,30.4193287 14.7026717,36.6137829 C17.5716149,42.8082275 18.9490484,45.9583597 19.8831902,48.2852193 L21.8013427,47.8741532 L22.4068441,49.9798592 C25.9118086,49.14487 34.4229557,47.1414748 34.476509,47.1414748 C34.3484255,46.572517 34.2196597,46.1457086 34.0931163,45.528276 L35.9811097,45.1380698 L37.8512065,44.6863952 C37.7570446,44.0871712 37.6971749,43.5189056 37.5986169,42.9005275 C38.3140518,42.6995904 38.6662521,42.6500531 39.4059781,42.4747035 C39.3487596,41.7791927 39.2768711,41.2775519 39.2604854,40.4633446 C40.0307506,40.2326871 40.5202653,40.1916497 41.2010963,39.9943192 C41.1559649,39.2317157 41.1449501,37.9026887 41.0352896,35.8419484 C40.5177407,35.9684138 39.5705566,36.1582873 38.7827067,36.3861765 C38.6623823,36.4210729 38.5666901,33.6856913 38.4444844,33.7208022 C37.7980333,33.9066109 37.136756,34.0922053 36.5518025,34.2360701 C36.4209507,33.3709998 36.3804787,32.7067397 36.2244975,31.6515327 C35.8240174,31.7651117 34.592174,32.0115311 34.592174,32.0115311 C34.592174,32.0115311 34.549382,31.7483849 34.5217963,31.4518726 C41.493885,25.4418429 45.163847,13.9409214 40.2901732,6.8968662 C38.574303,4.65793971 36.1009077,3.00269957 33.3618611,2.33422859 C28.2582218,1.35026675 19.5649993,1.5262012 12.2039424,4.33366627 L12.2038254,4.33366627 Z M27.1457574,14.7293658 C27.8793423,14.7371639 28.6163779,14.8115381 29.3562501,14.9801131 C33.4651466,16.6226034 33.6909986,22.2713285 32.0977337,25.7731444 C30.3060369,29.7331951 25.3988898,30.9594043 21.6693894,32.0245734 C20.2115382,27.0297076 18.305385,20.4066806 16.7392965,17.0706129 C19.6802257,16.1631307 23.9669185,14.7024527 27.1457574,14.7293658 L27.1457574,14.7293658 Z M29.744809,36.1886608 L29.744809,36.1893919 C29.867619,36.60849 30.0202372,37.3323664 30.0202372,37.3323664 L32.3329823,36.8304039 L32.6708829,38.2926903 L34.743408,37.7277193 C35.0611116,39.6042007 35.2442885,41.3077695 35.3335376,41.4522484 L34.1489214,41.7134841 C33.4625733,41.8697577 32.503692,42.0902289 32.0175207,42.2033303 L31.1334035,42.4092971 L31.3412808,43.3104434 L31.5494311,44.2115896 L31.0983804,44.3160936 C30.8505184,44.3737019 29.457362,44.6974393 28.0020939,45.0363439 C26.5468453,45.3752679 25.333074,45.6527237 25.3052446,45.6527237 C25.210108,45.6527237 25.1463002,45.1769628 23.676206,40.72884 C23.2951333,39.5758157 22.7849536,38.1195826 22.7849536,38.1195826 C22.9856275,38.0627541 23.3646142,37.9588642 23.6115697,37.8895782 C23.6393503,37.8817801 23.6670335,37.8728123 23.6946192,37.8658915 C26.0004435,37.2202982 29.7449844,36.1887875 29.7449844,36.1887875 L29.744809,36.1886608 Z" id="path4543" fill="#333333"></path>
            </g>
        </g>
    </g>
</svg>