<svg xmlns="http://www.w3.org/2000/svg" xmlns:xlink="http://www.w3.org/1999/xlink" width="426px" height="366px" viewBox="0 0 426 366" version="1.1">
    <title>About-dark</title>
    <defs>
        <rect id="path-1" x="0" y="0" width="141.428571" height="270" rx="32.4"/>
        <filter x="-3.2%" y="-1.7%" width="106.4%" height="103.3%" filterUnits="objectBoundingBox" id="filter-2">
            <feOffset dx="-2" dy="-2" in="SourceAlpha" result="shadowOffsetOuter1"/>
            <feGaussianBlur stdDeviation="0.5" in="shadowOffsetOuter1" result="shadowBlurOuter1"/>
            <feColorMatrix values="0 0 0 0 0.0934474779   0 0 0 0 0.0934474779   0 0 0 0 0.0934474779  0 0 0 0.2 0" type="matrix" in="shadowBlurOuter1" result="shadowMatrixOuter1"/>
            <feOffset dx="2" dy="2" in="SourceAlpha" result="shadowOffsetOuter2"/>
            <feGaussianBlur stdDeviation="0.5" in="shadowOffsetOuter2" result="shadowBlurOuter2"/>
            <feColorMatrix values="0 0 0 0 0   0 0 0 0 0   0 0 0 0 0  0 0 0 1 0" type="matrix" in="shadowBlurOuter2" result="shadowMatrixOuter2"/>
            <feMerge>
                <feMergeNode in="shadowMatrixOuter1"/>
                <feMergeNode in="shadowMatrixOuter2"/>
            </feMerge>
        </filter>
        <path d="M6.42857143,31.6285714 L6.42857143,238.035885 C6.42857143,251.953461 17.7109957,263.235885 31.6285714,263.235885 L109.8,263.235885 C123.717576,263.235885 135,251.953461 135,238.035885 L135,31.6285714 C135,17.7109957 123.717576,6.42857143 109.8,6.42857143 L104.772463,6.42857143 L104.772463,6.42857143 L104.772463,6.46843932 C104.772463,12.4331146 99.9371379,17.2684393 93.9724626,17.2684393 L48.4404,17.2684393 C42.4757247,17.2684393 37.6404,12.4331146 37.6404,6.46843932 L37.6404,6.42857143 L37.6404,6.42857143 L31.6285714,6.42857143 C17.7109957,6.42857143 6.42857143,17.7109957 6.42857143,31.6285714 Z" id="path-3"/>
        <filter x="-1.2%" y="-0.6%" width="102.3%" height="101.2%" filterUnits="objectBoundingBox" id="filter-4">
            <feGaussianBlur stdDeviation="1" in="SourceAlpha" result="shadowBlurInner1"/>
            <feOffset dx="0" dy="1" in="shadowBlurInner1" result="shadowOffsetInner1"/>
            <feComposite in="shadowOffsetInner1" in2="SourceAlpha" operator="arithmetic" k2="-1" k3="1" result="shadowInnerInner1"/>
            <feColorMatrix values="0 0 0 0 0   0 0 0 0 0   0 0 0 0 0  0 0 0 1 0" type="matrix" in="shadowInnerInner1"/>
        </filter>
        <path d="M305.799241,178.83488 L303.563302,225 L314.306042,225 L311.395334,178.83488 C310.491227,176.418091 311.461463,174.635449 314.306042,173.486954 C317.150622,172.33846 320.595615,172.33846 324.641022,173.486954 L363.99449,181.092006 L358.078139,164.111552 C357.525173,162.524493 358.023244,160.761036 359.32477,159.69776 L410,118.298837 L410,118.298837 L398.657474,112.201376 C396.945915,111.281284 396.143213,109.264215 396.754583,107.419702 L406.605012,77.7008449 L406.605012,77.7008449 L377.515886,83.2652333 C375.67924,83.616561 373.84427,82.6485293 373.097331,80.9342406 L367.391492,67.8388441 L367.391492,67.8388441 L348.328299,85.7465682 C346.718167,87.2591059 344.186743,87.1799902 342.674205,85.5698583 C341.830025,84.6712093 341.447452,83.4334651 341.637318,82.2152039 L349.333216,32.8349013 L349.333216,32.8349013 L332.872956,41.5283881 C330.944416,42.5469466 328.555397,41.8328387 327.502193,39.9229988 L308.79494,6 L308.79494,6 L289.728303,39.903039 C288.651245,41.8181917 286.23103,42.5060351 284.307722,41.443609 L268.723396,32.8349013 L268.723396,32.8349013 L274.664371,82.3036806 C274.927786,84.4970588 273.363242,86.4886829 271.169863,86.7520977 C269.95651,86.8978159 268.743111,86.4808717 267.875594,85.6201315 L249.954308,67.8388441 L249.954308,67.8388441 L243.840071,81.0112385 C243.062564,82.6862866 241.23942,83.6113477 239.428482,83.249674 L211.644909,77.7008449 L211.644909,77.7008449 L220.139805,107.761119 C220.618143,109.45378 219.934605,111.26029 218.455578,112.212332 L209,118.298837 L209,118.298837 L258.818181,159.681151 C260.110351,160.754514 260.59421,162.520872 260.029435,164.10291 L253.964461,181.092006 L253.964461,181.092006 C284.666327,175.118442 301.199274,172.583425 303.563302,173.486954 C305.927329,174.390484 306.672643,176.173126 305.799241,178.83488 Z" id="path-5"/>
        <filter x="-2.8%" y="-2.8%" width="106.7%" height="106.0%" filterUnits="objectBoundingBox" id="filter-6">
            <feMorphology radius="0.5" operator="dilate" in="SourceAlpha" result="shadowSpreadOuter1"/>
            <feOffset dx="-2" dy="-2" in="shadowSpreadOuter1" result="shadowOffsetOuter1"/>
            <feColorMatrix values="0 0 0 0 0.0934474779   0 0 0 0 0.0934474779   0 0 0 0 0.0934474779  0 0 0 0.2 0" type="matrix" in="shadowOffsetOuter1" result="shadowMatrixOuter1"/>
            <feOffset dx="2" dy="2" in="SourceAlpha" result="shadowOffsetOuter2"/>
            <feGaussianBlur stdDeviation="1" in="shadowOffsetOuter2" result="shadowBlurOuter2"/>
            <feColorMatrix values="0 0 0 0 0   0 0 0 0 0   0 0 0 0 0  0 0 0 1 0" type="matrix" in="shadowBlurOuter2" result="shadowMatrixOuter2"/>
            <feMerge>
                <feMergeNode in="shadowMatrixOuter1"/>
                <feMergeNode in="shadowMatrixOuter2"/>
            </feMerge>
        </filter>
        <filter x="-3.5%" y="-6.3%" width="107.0%" height="112.6%" filterUnits="objectBoundingBox" id="filter-7">
            <feOffset dx="2" dy="2" in="SourceAlpha" result="shadowOffsetOuter1"/>
            <feGaussianBlur stdDeviation="1.5" in="shadowOffsetOuter1" result="shadowBlurOuter1"/>
            <feColorMatrix values="0 0 0 0 0.767566748   0 0 0 0 0.877250782   0 0 0 0 0.868476059  0 0 0 1 0" type="matrix" in="shadowBlurOuter1" result="shadowMatrixOuter1"/>
            <feMerge>
                <feMergeNode in="shadowMatrixOuter1"/>
                <feMergeNode in="SourceGraphic"/>
            </feMerge>
        </filter>
    </defs>
    <g id="Page-1" stroke="none" stroke-width="1" fill="none" fill-rule="evenodd">
        <g id="Desktop-HD-Copy" transform="translate(-943.000000, -1051.000000)">
            <g id="About-dark" transform="translate(947.000000, 1055.000000)">
                <g id="iPhone-Copy-3" transform="translate(115.500000, 175.500000) rotate(-21.000000) translate(-115.500000, -175.500000) translate(44.000000, 40.000000)">
                    <g id="iPhone-Copy-4" transform="translate(0.196244, 0.656723)">
                        <g id="Rectangle">
                            <use fill="black" fill-opacity="1" filter="url(#filter-2)" xlink:href="#path-1"/>
                            <use fill="#2E2E2E" fill-rule="evenodd" xlink:href="#path-1"/>
                        </g>
                        <g id="Path-2">
                            <use fill="#2E2E2E" fill-rule="evenodd" xlink:href="#path-3"/>
                            <use fill="black" fill-opacity="1" filter="url(#filter-4)" xlink:href="#path-3"/>
                        </g>
                    </g>
                </g>
                <g id="Path-92-Copy" transform="translate(309.500000, 115.500000) rotate(3.000000) translate(-309.500000, -115.500000) ">
                    <use fill="black" fill-opacity="1" filter="url(#filter-6)" xlink:href="#path-5"/>
                    <use fill="#2E2E2E" fill-rule="evenodd" xlink:href="#path-5"/>
                </g>
                <g id="Rink" filter="url(#filter-7)" transform="translate(57.000000, 187.000000)">
                    <g id="Ice">
                        <path d="M201.585671,23.476286 C104.320594,35.7635426 73.762183,51.0668293 53.2411588,65.1822439 C32.7201347,79.2976585 20.4565014,73.499237 13.6028781,103.120413 C6.74925482,132.741588 -27.0573399,155.884969 47.3214487,165.121393 C121.700237,174.357818 199.898467,136.88538 207.260999,131.597502 C211.296338,128.699263 247.059342,110.649715 281.76,82.5564643 C287.763369,77.6962064 294.478379,66.6072887 301.905031,49.2897113 C299.868843,23.8892567 266.429056,15.2847816 201.585671,23.476286 Z" id="Path-70" fill="#E6FFFD"/>
                        <path d="M170.152089,34.356286 C139.657842,38.4616355 114.52587,44.1093875 94.756174,51.299542 C74.9864778,58.4896965 59.1749027,67.7329385 47.3214487,79.0292679 L109.401449,59.7213508 L170.152089,34.356286 Z" id="Path-71" fill="#D9F8F5"/>
                        <g id="Net" transform="translate(184.960000, 0.000000)">
                            <g id="vertical-strings" transform="translate(31.186780, 1.280000)" stroke="#D5D5D5" stroke-width="0.5">
                                <line x1="13.9337514" y1="0" x2="15.2863818" y2="30.0764017" id="Path-67"/>
                                <line x1="54.3263818" y1="2.5564017" x2="60.9953274" y2="32.7910042" id="Path-67-Copy"/>
                                <line x1="34.831909" y1="0.559100425" x2="36.7263818" y2="30.0764017" id="Path-67-Copy-2"/>
                                <line x1="26.9791454" y1="0.277751062" x2="28.8736182" y2="29.7950523" id="Path-67-Copy-10"/>
                                <line x1="23.4591454" y1="0.277751062" x2="25.3536182" y2="29.7950523" id="Path-67-Copy-11"/>
                                <line x1="19.9391454" y1="0.277751062" x2="21.8336182" y2="29.7950523" id="Path-67-Copy-12"/>
                                <line x1="17.0591454" y1="0.277751062" x2="17.8463818" y2="29.7564017" id="Path-67-Copy-13"/>
                                <line x1="10.2655272" y1="0.578425743" x2="11.0527636" y2="30.0570764" id="Path-67-Copy-14"/>
                                <line x1="6.74552717" y1="3.45842574" x2="7.53276359" y2="32.9370764" id="Path-67-Copy-15"/>
                                <line x1="2.58552717" y1="3.45842574" x2="3.37276359" y2="32.9370764" id="Path-67-Copy-16"/>
                                <line x1="0.0255271738" y1="4.09842574" x2="0.812763587" y2="33.5770764" id="Path-67-Copy-17"/>
                                <line x1="38.1791454" y1="0.597751062" x2="40.0736182" y2="30.1150523" id="Path-67-Copy-3"/>
                                <line x1="41.6991454" y1="0.597751062" x2="43.5936182" y2="30.1150523" id="Path-67-Copy-4"/>
                                <line x1="45.231909" y1="1.67910042" x2="47.1263818" y2="31.1964017" id="Path-67-Copy-5"/>
                                <line x1="45.231909" y1="1.67910042" x2="47.1263818" y2="31.1964017" id="Path-67-Copy-6"/>
                                <line x1="48.111909" y1="1.67910042" x2="50.0063818" y2="31.1964017" id="Path-67-Copy-8"/>
                                <line x1="48.111909" y1="1.67910042" x2="50.0063818" y2="31.1964017" id="Path-67-Copy-7"/>
                                <line x1="51.6191454" y1="1.87775106" x2="53.5136182" y2="31.3950523" id="Path-67-Copy-9"/>
                            </g>
                            <g id="horizontal-strings" transform="translate(28.073162, 3.676402)" stroke="#D5D5D5" stroke-width="0.5">
                                <path d="M1.28,29.1395462 C5.90691879,27.4145784 9.57154126,26.1187026 12.2738674,25.2519187 C14.9761936,24.3851349 16.9649044,24.1230021 18.24,24.4655205" id="Path-67-Copy-18"/>
                                <path d="M1.28,30.4195462 C5.90691879,28.6945784 9.57154126,27.3987026 12.2738674,26.5319187 C14.9761936,25.6651349 16.9649044,25.4030021 18.24,25.7455205" id="Path-67-Copy-47"/>
                                <path d="M18.24,24.3395462 C26.2903609,24.3395462 31.7854182,24.3395462 34.725172,24.3395462 C35.2665172,24.3395462 36.3137923,23.6633756 37.2973276,23.6995462 C40.2023368,23.806381 48.8047751,24.5530477 63.1046424,25.9395462" id="Path-67-Copy-28"/>
                                <path d="M18.24,25.6014011 C26.2903609,25.6014011 31.7854182,25.6014011 34.725172,25.6014011 C35.2665172,25.6014011 36.3137923,24.9252305 37.2973276,24.9614011 C40.2023368,25.068236 48.8047751,25.8149026 63.1046424,27.2014011" id="Path-67-Copy-29"/>
                                <path d="M62.716006,27.2014011 L63.4568667,27.3605887 C63.5731427,28.2668628 63.1699739,29.2782008 62.2473604,30.3946025 C61.3247469,31.5110043 60.2008457,32.4051616 58.8756568,33.0770745" id="Path-67-Copy-48"/>
                                <path d="M18.24,22.7214011 C26.2903609,22.7214011 31.7854182,22.7214011 34.725172,22.7214011 C35.2665172,22.7214011 36.3137923,22.0452305 37.2973276,22.0814011 C40.2023368,22.188236 48.6828969,22.9322942 62.7390076,24.3135759" id="Path-67-Copy-30"/>
                                <path d="M18.24,21.1214011 C26.2903609,21.1214011 31.7854182,21.1214011 34.725172,21.1214011 C35.2665172,21.1214011 36.3137923,20.4452305 37.2973276,20.4814011 C40.2023368,20.588236 48.5190145,21.3110574 62.2473604,22.6498654" id="Path-67-Copy-31"/>
                                <path d="M18.24,19.8414011 C26.2903609,19.8414011 31.7854182,19.8414011 34.725172,19.8414011 C35.2665172,19.8414011 36.3137923,19.1652305 37.2973276,19.2014011 C40.2023368,19.308236 48.3783529,20.00436 61.8253758,21.2897731" id="Path-67-Copy-32"/>
                                <path d="M17.92,18.5614011 C25.9703609,18.5614011 31.4654182,18.5614011 34.405172,18.5614011 C34.9465172,18.5614011 35.9937923,17.8852305 36.9773276,17.9214011 C39.8823368,18.028236 48.1650196,18.6924128 61.8253758,19.9139315" id="Path-67-Copy-33"/>
                                <path d="M17.92,16.9614011 C25.9703609,16.9614011 31.4654182,16.9614011 34.405172,16.9614011 C34.9465172,16.9614011 35.9937923,16.2852305 36.9773276,16.3214011 C39.8823368,16.428236 48.0198173,17.2310266 61.3897688,18.7297731" id="Path-67-Copy-34"/>
                                <path d="M17.6,15.0414011 C25.6503609,15.0414011 31.1454182,15.0414011 34.085172,15.0414011 C34.6265172,15.0414011 35.6737923,14.3652305 36.6573276,14.4014011 C39.5623368,14.508236 47.6013853,15.260951 60.7744728,16.6595462" id="Path-67-Copy-35"/>
                                <path d="M17.92,13.1214011 C25.9703609,13.1214011 31.4654182,13.1214011 34.405172,13.1214011 C34.9465172,13.1214011 35.9937923,12.4452305 36.9773276,12.4814011 C39.8823368,12.588236 47.7554339,13.2823017 60.5966187,14.5635983" id="Path-67-Copy-36"/>
                                <path d="M17.92,11.2014011 C25.9703609,11.2014011 31.4654182,11.2014011 34.405172,11.2014011 C34.9465172,11.2014011 35.9937923,10.5252305 36.9773276,10.5614011 C39.8823368,10.668236 47.4772951,11.3077689 59.7622024,12.48" id="Path-67-Copy-37"/>
                                <path d="M17.6,9.28140109 C25.6503609,9.28140109 31.1454182,9.28140109 34.085172,9.28140109 C34.6265172,9.28140109 35.6737923,8.60523051 36.6573276,8.64140109 C39.5623368,8.74823596 47.2639618,9.38776893 59.7622024,10.56" id="Path-67-Copy-38"/>
                                <path d="M17.6,7.36140109 C25.6503609,7.36140109 31.1454182,7.36140109 34.085172,7.36140109 C34.6265172,7.36140109 35.6737923,6.68523051 36.6573276,6.72140109 C39.5623368,6.82823596 47.2639618,7.47428432 59.7622024,8.65954616" id="Path-67-Copy-39"/>
                                <path d="M17.6,5.12140109 C25.6503609,5.12140109 31.1454182,5.12140109 34.085172,5.12140109 C34.6265172,5.12140109 35.6737923,4.44523051 36.6573276,4.48140109 C39.5623368,4.58823596 47.2639618,5.23258335 59.7622024,6.41444325" id="Path-67-Copy-40"/>
                                <path d="M17.28,2.88140109 C25.3303609,2.88140109 30.8254182,2.88140109 33.765172,2.88140109 C34.3065172,2.88140109 35.3537923,2.20523051 36.3373276,2.24140109 C39.2423368,2.34823596 47.0506285,2.99088238 59.7622024,4.16934034" id="Path-67-Copy-41"/>
                                <path d="M17.28,0.641401087 C25.3303609,0.641401087 30.8254182,0.641401087 33.765172,0.641401087 C34.3065172,0.641401087 35.3537923,-0.0347694914 36.3373276,0.00140108677 C39.2423368,0.108235959 46.7551133,0.854435596 58.8756568,2.24" id="Path-67-Copy-42"/>
                                <path d="M1.28,25.9395462 C5.90691879,24.2145784 9.57154126,22.9187026 12.2738674,22.0519187 C14.9761936,21.1851349 16.9649044,20.9230021 18.24,21.2655205" id="Path-67-Copy-19"/>
                                <path d="M1.28,27.5395462 C5.90691879,25.8145784 9.57154126,24.5187026 12.2738674,23.6519187 C14.9761936,22.7851349 16.9649044,22.5230021 18.24,22.8655205" id="Path-67-Copy-43"/>
                                <path d="M0.96,21.1395462 C5.58691879,19.4145784 9.25154126,18.1187026 11.9538674,17.2519187 C14.6561936,16.3851349 16.6449044,16.1230021 17.92,16.4655205" id="Path-67-Copy-20"/>
                                <path d="M0.96,24.3395462 C5.58691879,22.6145784 9.25154126,21.3187026 11.9538674,20.4519187 C14.6561936,19.5851349 16.6449044,19.3230021 17.92,19.6655205" id="Path-67-Copy-27"/>
                                <path d="M0.96,22.7395462 C5.58691879,21.0145784 9.25154126,19.7187026 11.9538674,18.8519187 C14.6561936,17.9851349 16.6449044,17.7230021 17.92,18.0655205" id="Path-67-Copy-44"/>
                                <path d="M0.64,19.619846 C5.70523675,17.8776357 9.5890182,16.5731387 12.2913444,15.7063548 C14.9936705,14.839571 16.8044506,14.544068 17.7236848,14.819846" id="Path-67-Copy-21"/>
                                <path d="M0.64,17.9395462 C5.26691879,16.2145784 8.93154126,14.9187026 11.6338674,14.0519187 C14.3361936,13.1851349 16.3249044,12.9230021 17.6,13.2655205" id="Path-67-Copy-22"/>
                                <path d="M0.64,16.0195462 C5.26691879,14.2945784 8.93154126,12.9987026 11.6338674,12.1319187 C14.3361936,11.2651349 16.3249044,11.0030021 17.6,11.3455205" id="Path-67-Copy-46"/>
                                <path d="M0.64,14.0995462 C5.26691879,12.3745784 8.93154126,11.0787026 11.6338674,10.2119187 C13.2501723,9.69348129 14.3676325,9.81206181 15.4733557,9.72624371 C15.9686579,9.687802 16.6775393,9.687802 17.6,9.72624371" id="Path-67-Copy-23"/>
                                <path d="M0.64,11.5395462 C5.26691879,9.81457839 8.93154126,8.51870258 11.6338674,7.65191872 C14.3361936,6.78513486 16.3249044,6.78513486 17.6,7.65191872" id="Path-67-Copy-24"/>
                                <path d="M2.84217094e-14,9.29020582 C4.50085707,7.30597728 8.16547954,6.01010147 10.9938674,5.40257838 C13.8222553,4.79505529 15.931686,4.64691348 17.3221595,4.95815295" id="Path-67-Copy-25"/>
                                <path d="M0.32,7.05020582 C4.82085707,5.06597728 8.48547954,3.77010147 11.3138674,3.16257838 C14.1422553,2.55505529 16.251686,2.40691348 17.6421595,2.71815295" id="Path-67-Copy-45"/>
                                <path d="M0.64,5.45954616 C5.26691879,3.73457839 8.93154126,2.43870258 11.6338674,1.57191872 C14.3361936,0.705134858 16.3249044,0.443002117 17.6,0.785520492" id="Path-67-Copy-26"/>
                            </g>
                            <path d="M31.1096078,36.1916885 C36.4608574,34.1671881 40.3762455,32.8316154 42.8557723,32.1849705 C45.335299,31.5383256 46.5410954,31.5383256 46.4731616,32.1849705 C46.7361701,31.7751523 45.5303736,31.9854781 42.8557723,32.8159479 C40.1811709,33.6464177 36.2657828,35.0262313 31.1096078,36.9553889 L31.1096078,36.1916885 Z" id="Path-68" fill-opacity="0.5" fill="#898989"/>
                            <path d="M46.4731616,31.2159479 L53.0203981,31.6999868 C74.8425128,32.8648007 85.6201007,33.5700183 85.3531616,33.8156395 C84.952753,34.1840712 51.1259252,32.0313344 47.4986965,32.5179775 C45.080544,32.8424062 43.1962869,32.8424062 41.8459252,32.5179775 L46.4731616,31.2159479 Z" id="Path-68-Copy" fill-opacity="0.5" fill="#898989"/>
                            <path d="M28.0731616,36.9564017 C9.35772055,43.3887174 9.09494702e-14,47.0721809 9.09494702e-14,48.0067921 C9.09494702e-14,49.4087089 61.0459252,53.5641008 67.9131616,52.2905171 C72.4913193,51.4414612 79.3914918,47.3643581 88.6136791,40.0592076 L85.3580005,39.5164017 C75.3281079,45.176662 69.4514564,48.4740977 67.728046,49.4087089 C65.1429304,50.8106257 10.7271816,48.0067921 10.7271816,46.1565218 C10.7271816,44.9230083 17.5555568,41.8559639 31.212307,36.9553889 L28.0731616,36.9564017 Z" id="Path-69" fill-opacity="0.5" fill="#D8D8D8"/>
                            <path d="M28.0731616,36.9564017 C9.35772055,43.3887174 9.09494702e-14,47.0721809 9.09494702e-14,48.0067921 C9.09494702e-14,49.4087089 61.0459252,53.5641008 67.9131616,52.2905171 C72.4913193,51.4414612 79.3914918,47.3643581 88.6136791,40.0592076 L85.3580005,39.5164017 C75.3281079,45.176662 69.4514564,48.4740977 67.728046,49.4087089 C65.1429304,50.8106257 10.7271816,48.0067921 10.7271816,46.1565218 C10.7271816,45.3073419 15.5507955,43.0075026 22.0231001,40.4204027 C22.551137,40.2093366 40.9987454,41.4100858 77.3659252,44.0226503 L78.8284802,43.2069236 L47.0454169,40.9564017 L65.7761428,32.4764017 L62.7264333,32.1128874 L42.2395434,40.4204027 C30.3702016,39.7832441 24.4773734,39.4489492 24.5610587,39.4175179 C25.7624871,38.9662748 27.9795699,38.1455651 31.212307,36.9553889 L28.0731616,36.9564017 Z" id="Path-69-Copy" fill-opacity="0.5" fill="#5A5A5A"/>
                            <g id="net-frame" transform="translate(28.134144, 0.059154)">
                                <path d="M2.97546333,35.0295534 L10.9092145,31.960881 C14.1586849,30.7040273 17.6305108,30.1236928 21.1120892,30.2554147 C35.1527308,30.7866277 45.3547202,31.2545049 51.7180576,31.6590463 C56.2095125,31.944585 59.9838174,32.2745576 63.0409723,32.648964 C64.2689118,32.7993542 65.1424434,33.9167071 64.9920589,35.1446474 C64.9277795,35.6695102 64.6798916,36.1547107 64.292267,36.5143771 L60.5356358,40.0000539 L60.5356358,40.0000539 L57.4358674,40.0000539 C58.9957599,38.4318898 60.029016,37.3972835 60.5356358,36.8962351 C60.8287178,36.6063763 61.2785134,36.1657818 61.8850227,35.5744518 C62.2646486,35.2043298 62.2723507,34.5965389 61.9022271,34.2169144 C61.7335223,34.043879 61.5057626,33.9408371 61.2644186,33.9283605 L20.6118852,31.8267726 C18.4707632,31.7160844 16.3292328,32.0368438 14.3145018,32.7699976 L2.97546333,36.8962351 L2.97546333,36.8962351 L2.97546333,35.0295534 Z" id="Path-64" fill="#DFDFDF"/>
                                <path d="M3.61430366,1.56582609 L13.5653505,0.253600205 C14.8448275,0.0848779763 16.1369255,0.0320245758 17.425908,0.095683702 L53.3556685,1.87015081 C55.528956,1.97748321 57.5364593,3.06412264 58.814674,4.82505032 L58.814674,4.82505032 L58.814674,4.82505032 L56.028453,7.47788206 C55.5210106,4.86703935 53.2976907,2.93930244 50.6412884,2.80692314 L20.3242107,1.29610017 C17.5914366,1.15991495 14.8578538,1.54807888 12.2710178,2.43963931 L5.34981895,4.82505032 L5.34981895,4.82505032 L3.61430366,1.56582609 Z" id="Path-65" fill="#DFDFDF"/>
                                <path d="M62.6550232,30.8186491 L63.3958839,30.9778367 C63.5121598,31.8841108 63.1089911,32.8954488 62.1863776,34.0118505 C61.263764,35.1282523 60.1398629,36.0224096 58.814674,36.6943224" id="Path-67-Copy-49" stroke="#D5D5D5" stroke-width="0.5"/>
                                <path d="M62.7602271,28.7364356 C62.876503,29.6427097 62.4733342,30.6540477 61.5507207,31.7704494 C60.6281072,32.8868512 59.504206,33.7810085 58.1790172,34.4529213" id="Path-67-Copy-50" stroke="#D5D5D5" stroke-width="0.5"/>
                                <path d="M62.4402271,26.337248 C62.556503,27.2435221 62.1533342,28.25486 61.2307207,29.3712618 C60.3081072,30.4876636 59.184206,31.3818209 57.8590172,32.0537337" id="Path-67-Copy-51" stroke="#D5D5D5" stroke-width="0.5"/>
                                <path d="M61.8002271,24.737248 C61.916503,25.6435221 61.5133342,26.65486 60.5907207,27.7712618 C59.6681072,28.8876636 58.544206,29.7818209 57.2190172,30.4537337" id="Path-67-Copy-52" stroke="#D5D5D5" stroke-width="0.5"/>
                                <path d="M61.8002271,23.457248 C61.916503,24.3635221 61.5133342,25.37486 60.5907207,26.4912618 C59.6681072,27.6076636 58.544206,28.5018209 57.2190172,29.1737337" id="Path-67-Copy-53" stroke="#D5D5D5" stroke-width="0.5"/>
                                <path d="M61.4802271,21.857248 C61.596503,22.7635221 61.1933342,23.77486 60.2707207,24.8912618 C59.3481072,26.0076636 58.544206,26.8157073 57.8590172,27.3153931" id="Path-67-Copy-54" stroke="#D5D5D5" stroke-width="0.5"/>
                                <path d="M61.1602271,20.257248 C61.276503,21.1635221 60.8733342,22.17486 59.9507207,23.2912618 C59.0281072,24.4076636 58.3308727,25.209659 57.8590172,25.697248" id="Path-67-Copy-55" stroke="#D5D5D5" stroke-width="0.5"/>
                                <polygon id="Path-66" fill="#DFDFDF" points="33.0293678 1.62637778 34.6849355 31.6632312 37.6419983 31.6632312 35.8924811 1.62637778"/>
                                <path d="M-1.02318154e-13,36.6541112 L-1.02318154e-13,5.24277432 C-1.03021963e-13,3.12200088 1.71922656,1.40277432 3.84,1.40277432 C3.89923146,1.40277432 3.95845499,1.40414477 4.01762304,1.40688458 L56.8732589,3.85439467 C58.9227732,3.94929859 60.5356358,5.63857399 60.5356358,7.6902844 L60.5356358,39.8941329 L60.5356358,39.8941329 C59.9365448,39.9807017 59.4302342,40.0142062 59.0167039,39.9946465 C58.6031735,39.9750869 58.0159593,39.8898594 57.2550611,39.7389643 L57.2550611,11.0557252 C57.2550611,9.01334962 55.6563547,7.32832649 53.6167996,7.22102812 L7.0172018,4.76948335 C4.89935709,4.65806627 3.09218334,6.28459723 2.98076626,8.40244194 C2.97723158,8.46963003 2.97546333,8.53689941 2.97546333,8.60418041 L2.97546333,36.8962351 L2.97546333,36.8962351 C2.35294574,36.9249472 1.86526564,36.9249472 1.51242304,36.8962351 C1.15958044,36.8675231 0.655439425,36.7868151 -1.02318154e-13,36.6541112 Z" id="Path-63" fill="#FE0000"/>
                            </g>
                        </g>
                    </g>
                    <g id="stick" transform="translate(148.678148, 50.232642)">
                        <path d="M-5.68434189e-15,0.590057458 L27.0027761,34.9503017 C29.3830517,38.1458793 31.2740226,39.992172 32.6756891,40.4891797 C34.7781887,41.2346912 47.8514891,41.9205954 49.5911189,41.9205954 C50.4101627,41.9205954 50.0847123,40.0612184 49.5911189,39.0331834 C49.0363315,37.877696 48.2650751,37.7487842 47.2649722,37.4222649 C45.3750797,36.805242 35.8046168,36.5092394 33.9071176,36.1457713 C32.0096183,35.7823033 30.5294614,33.8945104 29.3591978,32.9673584 C28.5790221,32.3492571 19.5507453,21.3601376 2.27436756,-5.68434189e-15 L-5.68434189e-15,0.590057458 Z" id="Path-72" fill="#753D0F"/>
                        <path d="M35.4206364,36.1457713 L35.4206364,40.9417022 C36.3179927,41.0705489 37.6691632,41.2077277 39.474148,41.3532388 C41.2791329,41.4987499 43.9755067,41.6878687 47.5632696,41.9205954 L47.1999916,37.1960801 C45.7186027,36.9404465 44.2198649,36.7450386 42.7037783,36.6098565 C41.1876916,36.4746743 38.7599777,36.3199792 35.4206364,36.1457713 Z" id="Path-73" fill="#000000"/>
                    </g>
                    <path d="M133.527161,98.2616984 C116.243808,102.735864 104.273653,106.910922 97.6166959,110.786874 C87.6312597,116.600802 86.1390848,123.139473 92.2431264,126.904972 C98.347168,130.670472 102.125393,135.247176 123.744847,126.904972 C145.3643,118.562769 150.780911,111.652088 156.323034,106.629421 C160.017783,103.280976 160.99626,99.3111687 159.258463,94.72 L133.527161,98.2616984 Z" id="Path-81" fill-opacity="0.5" fill="#585858"/>
                    <g id="skate-left" transform="translate(143.770485, 94.668776)">
                        <path d="M0.625576598,4.1184865 C0.404863195,4.81743147 0.7872297,5.10765627 1.77267611,4.98916091 C3.25084573,4.81141787 3.97916261,3.97782325 4.55357308,3.4614486 C4.93651339,3.11719883 5.05454348,2.68702214 4.90766335,2.17091852 L1.92324247,3.52828536 L0.625576598,4.1184865 Z" id="Path-79" fill="#D8D8D8"/>
                        <path d="M6.39488462e-15,-1.95399252e-14 L6.39488462e-15,4.01189665 C0.186996289,4.41947024 0.588747407,4.62325704 1.20525335,4.62325704 C1.8217593,4.62325704 2.43552762,4.41947024 3.04655832,4.01189665 C4.26603362,3.32235768 5.02047298,2.75515482 5.30987641,2.31028807 C5.74398156,1.64298793 5.53134633,1.0368002 4.90766335,0.795834638 C4.49187469,0.635190928 3.71061529,0.811296967 2.56388515,1.32415275 L2.56388515,-1.95399252e-14 L6.39488462e-15,-1.95399252e-14 Z" id="Path-78" fill="#E96F6F"/>
                    </g>
                    <g id="skate-right" transform="translate(154.240000, 94.720000)">
                        <path d="M0.625576598,4.36226886 C0.505240768,4.89655221 0.937796059,5.09703002 1.92324247,4.96370227 C3.40141209,4.76371066 4.07253218,4.2792013 4.64694265,3.69819064 C5.02988297,3.3108502 5.11678987,2.80175949 4.90766335,2.17091852 L1.92324247,3.69819064 L0.625576598,4.36226886 Z" id="Path-79" fill="#D6D6D6"/>
                        <path d="M6.39488462e-15,-1.95399252e-14 L6.39488462e-15,4.01189665 C0.186996289,4.41947024 0.588747407,4.62325704 1.20525335,4.62325704 C1.8217593,4.62325704 2.43552762,4.41947024 3.04655832,4.01189665 C4.26603362,3.32235768 5.02047298,2.75515482 5.30987641,2.31028807 C5.74398156,1.64298793 5.53134633,1.0368002 4.90766335,0.795834638 C4.49187469,0.635190928 3.71061529,0.811296967 2.56388515,1.32415275 L2.56388515,-1.95399252e-14 L6.39488462e-15,-1.95399252e-14 Z" id="Path-78" fill="#E96F6F"/>
                    </g>
                    <path d="M144.852036,67.4867769 L142.826329,93.9520035 C142.587686,94.1955449 143.001336,94.57227 144.067277,95.0821789 C145.133218,95.5920878 146.395012,95.5920878 147.85266,95.0821789 L150.952516,68.4110495 C149.875577,68.5290634 148.842291,68.5290634 147.85266,68.4110495 C146.863028,68.2930356 145.86282,67.9849447 144.852036,67.4867769 Z" id="skate-left-leg" fill="#000000"/>
                    <path d="M149.12,69.12 L152.596352,94.9301025 C153.122666,95.6386533 153.849655,95.9929287 154.777317,95.9929287 C155.70498,95.9929287 156.580397,95.6386533 157.403567,94.9301025 L155.511391,69.12 L149.12,69.12 Z" id="skate-right-leg" fill="#000000"/>
                    <path d="M148.027853,43.2460077 L148.027853,45.1855947 L142.927516,45.5739057 C142.017284,46.7669593 141.562168,47.7597986 141.562168,48.5524237 C141.562168,49.3450489 141.597703,50.6284989 141.668772,52.4027739 L142.524348,67.7749615 C143.98137,69.2949691 145.70066,70.2555734 147.682221,70.6567745 C149.663781,71.0579755 152.688982,71.0579755 156.757824,70.6567745 L156.757824,52.9571552 L158.291821,50.4548496 C158.590533,48.6629162 158.079201,47.4771226 156.757824,46.8974689 C155.436447,46.3178151 154.009552,45.8766274 152.47714,45.5739057 L152.47714,43.6070416 C151.468013,43.6489083 150.705472,43.6489083 150.189518,43.6070416 C149.673563,43.5651749 148.953008,43.4448303 148.027853,43.2460077 Z" id="skate-torso" fill="#FFF27B"/>
                    <path d="M150.308437,23.8836118 C144.726467,22.8826705 141.462872,28.5091845 141.44,33.8022499 C141.417345,39.0953152 144.976618,43.2156694 149.906222,44.0996307 C154.835827,44.9835919 158.346612,41.8475312 158.372242,35.8879628 C158.397871,29.9283944 155.890406,24.884553 150.308437,23.8836118 Z" id="skate-head" fill="#EED3A8"/>
                    <g id="skate-right-arm" transform="translate(156.323034, 45.646945)">
                        <path d="M1.28,5.83915737 C1.3226023,6.1812465 1.49568824,6.69458955 1.79925781,7.37918653 C2.0014044,7.83505877 1.58935623,12.8303194 3.03193535,16.4977187 C3.70362441,18.2053213 5.04133602,20.7194823 7.04507018,24.0402014 C7.65947235,24.1159537 8.20112609,24.1538298 8.67003137,24.1538298 C9.13893666,24.1538298 9.4844089,23.9515562 9.70644807,23.547009 C8.71236561,20.8302138 7.84185157,18.1355971 7.09490596,15.4631589 C5.97448754,11.4545015 5.86632909,6.42488933 5.86632909,5.83915737 C5.86632909,4.57045473 4.71664984,3.04864406 4.01648122,2.41805672 C3.54970214,1.99766517 2.63754174,1.40497959 1.28,0.64 L1.28,5.83915737 Z" id="skate-right-forearm" fill="#FFF27B" transform="translate(5.493224, 12.396915) rotate(-4.000000) translate(-5.493224, -12.396915) "/>
                        <path d="M10.6324603,22.7520037 L12.3033636,24.4190902 C12.8079485,24.994754 12.9581466,25.3703888 12.753958,25.5459947 C12.5497693,25.7216006 12.0539813,25.6431793 11.2665939,25.3107307 L10.2298242,28.0731216 C10.0879248,28.0267738 9.98455358,27.9600233 9.91971055,27.8728701 C9.85486751,27.7857169 9.79275031,27.6300402 9.73335893,27.40584 L10.2298242,26.137999 L9.53691628,27.1975479 C9.36831548,27.1667373 9.2532096,27.1193547 9.19159864,27.0554 C9.12998769,26.9914452 9.07295261,26.8601384 9.02049341,26.6614795 L9.19159864,26.137999 L8.88782203,26.4609633 C8.70269215,26.4287565 8.56995695,26.3776726 8.48961644,26.3077115 C8.40927593,26.2377505 8.33440138,26.1080465 8.26499281,25.9185996 L8.26499281,25.5459947 C7.93485311,25.4532923 7.71416849,25.3285197 7.60293895,25.1716769 C7.49170941,25.0148342 7.34518117,24.448627 7.16335423,23.4730554 L10.6324603,22.7520037 Z" id="skate-right-hand" fill="#1A1A1A"/>
                    </g>
                    <path d="M148.339807,50.6391574 C148.382409,50.9812465 148.555495,51.4945896 148.859064,52.1791865 C149.025185,52.5538143 151.422142,55.5833457 150.366136,57.4803087 C149.783639,58.5266809 145.331492,59.188833 137.009695,59.4667653 C138.208117,61.0613146 139.04178,61.8585892 139.510685,61.8585892 C140.214043,61.8585892 152.453116,61.6215998 153.386585,60.0120169 C154.548635,58.0082906 154.395152,54.8840041 152.926136,50.6391574 C152.159683,48.7788152 151.543067,47.6384483 151.076288,47.2180567 C150.609509,46.7976652 149.697348,46.2049796 148.339807,45.44 L148.339807,50.6391574 Z" id="skate-left-forearm" fill="#FFF27B" transform="translate(145.583068, 53.649295) scale(-1, 1) translate(-145.583068, -53.649295) "/>
                    <g id="puck" transform="translate(196.204701, 81.445726)">
                        <path d="M-2.13162821e-14,1.30142593 L0.0367162842,3.80280835 C1.72070361,4.50375066 3.3981863,4.85422182 5.06916435,4.85422182 C6.11068544,4.85422182 7.24703462,4.84407147 8.54087536,4.60306181 C9.06217514,4.5059569 9.90064919,4.27949502 11.0562975,3.92367618 L11.0562975,1.67097771 C9.249461,2.25597062 7.40280932,2.5295468 5.51634249,2.49170625 C3.62987567,2.4538657 1.79109484,2.05710559 -2.13162821e-14,1.30142593 Z" id="Path-76" fill="#000000"/>
                        <path d="M5.80537685,0.0299675458 C3.27248073,-0.118269417 0.383157052,0.289923132 0.0367162842,1.11073815 C-0.309724484,1.93155318 1.84182593,2.88566508 4.53358439,3.04319941 C7.22534285,3.20073374 10.7116403,2.51491833 11.032685,1.75427383 C11.3537296,0.993629319 8.33827298,0.178204509 5.80537685,0.0299675458 Z" id="Path-75" fill="#4B4B4B"/>
                        <path d="M0.618635652,1.30142593 C1.37594505,1.68244808 1.96732197,1.93708405 2.3927664,2.06533384 C2.81821083,2.19358363 3.53057468,2.4482196 4.52985796,2.82924175 C3.92572383,2.7801919 3.17284162,2.64061146 2.27121133,2.41050041 C1.36958104,2.18038936 0.818722479,1.81069787 0.618635652,1.30142593 Z" id="Path-77" fill-opacity="0.5" fill="#D8D8D8"/>
                    </g>
                    <g id="helmet" transform="translate(141.359737, 23.709886)">
                        <path d="M10.5537307,16.5948332 C11.9294267,17.1722272 12.9928145,17.0600076 13.7438941,16.2581745 C14.4949738,15.4563413 14.7151364,14.2858856 14.404382,12.7468075 L15.158489,12.7468075 C15.3578056,14.8193388 14.9867533,16.2397668 14.0453321,17.0080916 C13.103911,17.7764164 11.6197266,17.7764164 9.59277917,17.0080916 L10.5537307,16.5948332 Z" id="Path-84" fill="#000000"/>
                        <path d="M6.53063312,0.22873439 C4.23192338,0.848441648 1.67146186,2.53479032 0.698303487,4.51281552 C-0.139381681,6.21548017 -0.0419045656,8.27854201 0.0802634188,9.91488262 C0.214070882,11.7071246 0.74553661,13.7254674 1.6746606,15.9699112 C3.01416519,16.5930912 4.13305291,16.978795 5.03132376,17.1270225 C5.92959461,17.2752501 7.1481022,17.404097 8.68684651,17.513563 L11.0950346,17.1270225 L11.0950346,13.9418287 C10.9881169,12.0785469 11.1227444,10.8636559 11.4989169,10.2971558 C12.0631758,9.44740574 12.1220467,8.21159473 12.7967038,8.35707209 C13.4297579,8.49357853 13.9601043,13.2471461 14.5932942,13.0601332 C14.6759868,13.0357099 15.3626833,13.2329289 15.4334401,12.5289156 C15.615839,10.7140883 16.2755252,7.65608635 16.5098344,7.52721974 C16.7209936,7.41108525 16.8735682,7.41108525 16.9675581,7.52721974 L16.6307492,4.94300567 C16.5511033,4.33188218 16.2394138,3.7748195 15.7602597,3.38722851 C12.2697807,0.563756183 9.19323849,-0.48907519 6.53063312,0.22873439 Z" id="Path-74" fill="#EA0000"/>
                        <path d="M1.26953171,4.32105999 C0.679311668,8.52040626 0.679311668,11.630715 1.26953171,13.6519862 C1.85975176,15.6732574 2.39278095,16.4837617 2.8686193,16.0834989 C4.52577677,16.699894 5.89105472,17.0080916 6.96445315,17.0080916 C8.03785158,17.0080916 9.33565747,16.699894 10.8578708,16.0834989 C8.3794553,15.1014715 6.38473357,13.7731796 4.87370566,12.0986232 C3.36267774,10.4240668 2.16128642,7.83154577 1.26953171,4.32105999 Z" id="Path-80" fill-opacity="0.5" fill="#D8D8D8"/>
                    </g>
                    <path d="M196.204701,84.8975929 C195.675205,86.1028657 195.687444,86.8239675 196.241418,87.060898 C197.072379,87.4162938 199.078666,87.3961586 201.262787,87.060898 C202.718868,86.8373909 204.718272,86.273559 207.260999,85.3694024 C203.823744,85.8447419 201.299256,86.0480229 199.687537,85.9792454 C198.075818,85.910468 196.914873,85.5499171 196.204701,84.8975929 Z" id="Path-82" fill-opacity="0.5" fill="#424242"/>
                    <path d="M181.353837,90.7218213 L175.52801,93.44 L159.928516,100.708801 C159.781723,101.345738 159.637705,101.848908 159.496462,102.218312 C159.355219,102.587716 159.101983,103.103797 158.736754,103.766556 C173.498292,98.5370969 181.03732,95.9458878 181.353837,95.9929287 C186.311237,96.7296989 188.523617,96.2726181 191.453134,95.9929287 C195.105812,95.644197 197.544384,94.470768 198.768853,92.4726416 L181.353837,90.7218213 Z" id="Path-83" fill-opacity="0.5" fill="#4F4F4F"/>
                </g>
            </g>
        </g>
    </g>
</svg>