<?xml version="1.0" encoding="UTF-8"?>
<svg width="40px" height="40px" viewBox="0 0 40 40" version="1.1" xmlns="http://www.w3.org/2000/svg" xmlns:xlink="http://www.w3.org/1999/xlink">
    <title>LinkedIn</title>
    <defs>
        <path d="M37.0375,0.00125 L2.9525,0.00125 C1.325,0.00125 0,1.2925 0,2.8825 L0,37.1125 C0,38.70625 1.325,40 2.9525,40 L37.04,40 C38.67125,40 40,38.70625 40,37.1125 L40,2.8825 C40,1.2925 38.67125,0.00125 37.0375,0.00125 Z" id="path-1"></path>
        <filter x="-5.0%" y="-5.0%" width="110.0%" height="110.0%" filterUnits="objectBoundingBox" id="filter-2">
            <feGaussianBlur stdDeviation="1.5" in="SourceAlpha" result="shadowBlurInner1"></feGaussianBlur>
            <feOffset dx="-1" dy="-1" in="shadowBlurInner1" result="shadowOffsetInner1"></feOffset>
            <feComposite in="shadowOffsetInner1" in2="SourceAlpha" operator="arithmetic" k2="-1" k3="1" result="shadowInnerInner1"></feComposite>
            <feColorMatrix values="0 0 0 0 0   0 0 0 0 0.0800966469   0 0 0 0 0.122181326  0 0 0 1 0" type="matrix" in="shadowInnerInner1" result="shadowMatrixInner1"></feColorMatrix>
            <feGaussianBlur stdDeviation="1.5" in="SourceAlpha" result="shadowBlurInner2"></feGaussianBlur>
            <feOffset dx="1" dy="1" in="shadowBlurInner2" result="shadowOffsetInner2"></feOffset>
            <feComposite in="shadowOffsetInner2" in2="SourceAlpha" operator="arithmetic" k2="-1" k3="1" result="shadowInnerInner2"></feComposite>
            <feColorMatrix values="0 0 0 0 0.00300670884   0 0 0 0 0.470424071   0 0 0 0 0.716016244  0 0 0 1 0" type="matrix" in="shadowInnerInner2" result="shadowMatrixInner2"></feColorMatrix>
            <feMerge>
                <feMergeNode in="shadowMatrixInner1"></feMergeNode>
                <feMergeNode in="shadowMatrixInner2"></feMergeNode>
            </feMerge>
        </filter>
    </defs>
    <g id="Page-1" stroke="none" stroke-width="1" fill="none" fill-rule="evenodd">
        <g id="Desktop-HD" transform="translate(-741.000000, -913.000000)" fill-rule="nonzero">
            <g id="Group-13" transform="translate(731.000000, 892.000000)">
                <g id="LinkedIn" transform="translate(10.000000, 21.000000)">
                    <g id="Path">
                        <use fill="#0177B5" xlink:href="#path-1"></use>
                        <use fill="black" fill-opacity="1" filter="url(#filter-2)" xlink:href="#path-1"></use>
                    </g>
                    <path d="M5.93125,14.99625 L11.875,14.99625 L11.875,34.08375 L5.93125,34.08375 L5.93125,14.99625 Z M8.89875,5.49624795 C10.795,5.49624795 12.33625,7.0375 12.33625,8.93375 C12.33625,10.83 10.795,12.375 8.9,12.375 C7.00095753,12.3708777 5.46231195,10.8327908 5.4575,8.93375 C5.4575,8.02141822 5.82017832,7.14650786 6.4656459,6.50174365 C7.11111349,5.85697945 7.98641876,5.49525473 8.89875,5.49624795 M15.58625,14.99625 L21.27625,14.99625 L21.27625,17.605 L21.355,17.605 C22.1475,16.105 24.0825,14.5225 26.98,14.5225 C32.9875,14.5225 34.09625,18.47625 34.09625,23.615 L34.09625,34.085 L28.1675,34.085 L28.1675,24.8 C28.1675,22.5875 28.1275,19.7375 25.085,19.7375 C21.9975,19.7375 21.5225,22.15 21.5225,24.6375 L21.5225,34.08 L15.595,34.08 L15.595,14.9925 L15.58625,14.99625 Z" id="Shape" fill="#E7E7E7"></path>
                </g>
            </g>
        </g>
    </g>
</svg>