<?xml version="1.0" encoding="UTF-8"?>
<svg width="50px" height="53px" viewBox="0 0 50 53" version="1.1" xmlns="http://www.w3.org/2000/svg" xmlns:xlink="http://www.w3.org/1999/xlink">
    <title>Nanoleaf</title>
    <g id="Page-1" stroke="none" stroke-width="1" fill="none" fill-rule="evenodd">
        <g id="Desktop-HD" transform="translate(-249.000000, -4320.000000)" fill="#5BB343">
            <g id="Nanoleaf" transform="translate(234.000000, 4307.000000)">
                <g transform="translate(15.810499, 13.044847)" id="Combined-Shape">
                    <path d="M5.16151633,1.84184906 C12.9501143,-3.09790916 34.5480689,2.93934054 41.1574465,7.74044635 C46.7733239,14.6832887 49.0890202,24.948911 48.1045356,38.5373134 C48.0514343,39.2702468 47.6006723,39.9150276 46.9305522,40.2166073 L46.9305522,40.2166073 L46.5878107,40.3711164 C41.9601059,42.4608937 39.6462534,43.6555726 39.6462534,43.9551532 C39.6462534,44.249972 40.5816102,46.1342284 42.4523238,49.6079225 L42.4523238,49.6079225 L42.468898,49.6396836 C42.8188241,50.3311806 42.5419262,51.1754208 41.8504292,51.5253468 C41.8224589,51.539501 41.7939998,51.5526679 41.7651046,51.5648232 C41.0839033,51.851383 40.2993778,51.5314628 40.0128395,50.8502524 C38.5547839,47.3842064 37.6574376,45.6511834 37.3208006,45.6511834 C37.0198907,45.6511834 35.0198287,47.021338 32.8313933,48.3612606 L32.3033256,48.6815446 C30.5362008,49.7424431 28.7258689,50.7122933 27.6458487,50.8740975 C25.1078014,51.2543372 5.16151633,42.8773609 1.31482533,35.2688681 C0.484340789,30.0790305 -2.62708164,6.78160728 5.16151633,1.84184906 Z M18.7037492,29.3801377 C17.1454715,30.2808304 16.5690221,33.0412802 18.04053,35.2059543 C19.5120379,37.3706283 22.2531633,39.0762576 24.2069924,37.4757297 C26.1608215,35.8752018 26.5844232,33.193848 25.1563032,31.0930002 C23.7281833,28.9921524 20.2620269,28.4794451 18.7037492,29.3801377 Z M31.7037492,21.3801377 C30.1454715,22.2808304 29.5690221,25.0412802 31.04053,27.2059543 C32.5120379,29.3706283 35.7212923,30.6797755 37.2069924,29.4757297 C38.6926924,28.2716838 39.5844232,25.193848 38.1563032,23.0930002 C36.7281833,20.9921524 33.2620269,20.4794451 31.7037492,21.3801377 Z M17.6371786,13.6752067 C16.0789009,14.5758994 15.5024515,17.3363492 16.9739594,19.5010233 C18.4454673,21.6656973 19.9308353,23.3137359 23.1404218,21.7707987 C26.3500082,20.2278615 25.5178526,17.488917 24.0897326,15.3880692 C22.6616127,13.2872214 19.1954563,12.7745141 17.6371786,13.6752067 Z"></path>
                </g>
            </g>
        </g>
    </g>
</svg>