<?xml version="1.0" encoding="UTF-8"?>
<svg width="367px" height="261px" viewBox="0 0 367 261" version="1.1" xmlns="http://www.w3.org/2000/svg" xmlns:xlink="http://www.w3.org/1999/xlink">
    <title>Robinhood-Info-dark</title>
    <defs>
        <path d="M23.0039211,18.2972413 C20.5550861,15.8559703 18.01832,15.0730995 14.7213749,15.0730995 C10.7200352,15.0730995 6.93048671,16.8317223 5.04894939,19.7031941 L5.04894939,15.4919543 L0,15.4919543 L0,49.9997269 L5.04894939,49.9997269 L5.04894939,28.8206134 C5.04894939,23.5579818 8.25418131,19.5632606 13.3040762,19.5632606 C15.9703753,19.5632606 17.387674,20.1910701 19.2767753,22.0867898 L23.0039211,18.2972413 Z M50.108459,32.7491498 C50.108459,27.4165516 49.4135193,22.5756114 45.8896552,19.0016359 C43.5145689,16.6170947 40.2166783,15.074045 35.9978746,15.074045 C31.7979807,15.074045 28.5010357,16.6170947 26.1174399,19.0006904 C22.6191042,22.5746659 21.9260555,27.4156061 21.9260555,32.7482043 C21.9260555,38.0817481 22.6191042,42.9122878 26.1164944,46.4928817 C28.5010357,48.875532 31.7989262,50.4204727 35.9969291,50.4204727 C40.2166783,50.4204727 43.5145689,48.8764775 45.8896552,46.4928817 C49.4135193,42.9132333 50.108459,38.0817481 50.108459,32.7491498 M45.0576186,32.7491498 C45.0576186,36.6039376 44.8382635,40.8766347 42.3260802,43.4077278 C40.7111728,45.0216897 38.4637285,45.935039 35.9978746,45.935039 C33.551876,45.935039 31.3687255,45.0216897 29.7793464,43.4077278 C27.2397438,40.8766347 26.9768959,36.6039376 26.9768959,32.7491498 C26.9768959,28.8867981 27.2397438,24.6131555 29.7793464,22.0867898 C31.36778,20.4699914 33.551876,19.5623152 35.9978746,19.5623152 C38.4637285,19.5623152 40.7111728,20.4699914 42.3260802,22.0867898 C44.8382635,24.6131555 45.0585641,28.8867981 45.0585641,32.7491498 M84.9197359,32.7491498 C84.9197359,27.3428029 84.2266872,21.5941864 80.7283515,18.0967961 C78.9101624,16.2748251 75.8070441,15.074045 72.3087084,15.074045 C68.5191598,15.074045 65.3508023,15.9136455 62.5455152,19.4895119 L62.5455152,0.073748699 L57.4956203,0.073748699 L57.4956203,49.9997269 L62.5455152,49.9997269 L62.5455152,45.8631813 C65.3508023,49.5061779 68.5191598,50.4204727 72.3087084,50.4204727 C75.8070441,50.4204727 78.9101624,49.2234746 80.7283515,47.3977215 C84.2266872,43.8993858 84.9197359,38.1450963 84.9197359,32.7491498 M79.869841,32.7491498 C79.869841,39.4791914 78.7465916,45.935039 71.2497527,45.935039 C63.7614232,45.935039 62.5455152,39.4791914 62.5455152,32.7491498 C62.5455152,26.0153263 63.7614232,19.5632606 71.2497527,19.5632606 C78.7465916,19.5632606 79.869841,26.0153263 79.869841,32.7491498 M97.3766475,49.9997269 L97.3766475,15.4919543 L92.3267526,15.4919543 L92.3267526,49.9997269 L97.3766475,49.9997269 Z M97.7160806,5.67675883 L97.7160806,0 L92.0629592,0 L92.0629592,5.67675883 L97.7160806,5.67675883 Z M133.824578,49.9997269 L133.824578,27.9082096 C133.824578,23.9087609 132.699438,20.6817826 130.233584,18.2972413 C128.125128,16.1916214 125.121286,15.0730995 121.395086,15.0730995 C117.560154,15.0730995 114.188514,16.4752703 111.72266,19.2805573 L111.72266,15.4919543 L106.673711,15.4919543 L106.673711,49.9997269 L111.72266,49.9997269 L111.72266,28.7478102 C111.72266,22.7174358 115.084845,19.5632606 120.271837,19.5632606 C125.476793,19.5632606 128.774683,22.6436871 128.774683,28.7478102 L128.774683,49.9997269 L133.824578,49.9997269 Z M169.824344,49.9997269 L169.824344,27.8344609 C169.824344,20.0501912 165.202759,15.074045 157.41187,15.074045 C153.558028,15.074045 150.251628,16.4128675 147.741336,19.2796118 L147.741336,0.073748699 L142.68955,0.073748699 L142.68955,49.9997269 L147.741336,49.9997269 L147.741336,28.6768979 C147.741336,22.7174358 151.173487,19.5623152 156.363315,19.5623152 C161.540852,19.5623152 164.772558,22.6436871 164.772558,28.6768979 L164.772558,49.9997269 L169.824344,49.9997269 Z M205.083786,32.7491498 C205.083786,27.4165516 204.371827,22.5756114 200.865928,19.0016359 C198.461531,16.6170947 195.183496,15.074045 190.964692,15.074045 C186.774253,15.074045 183.468799,16.6170947 181.074802,19.0006904 C177.595377,22.5746659 176.873018,27.4156061 176.873018,32.7482043 C176.873018,38.0817481 177.595377,42.9122878 181.074802,46.4928817 C183.468799,48.875532 186.774253,50.4204727 190.964692,50.4204727 C195.183496,50.4204727 198.461531,48.8764775 200.865928,46.4928817 C204.371827,42.9132333 205.083786,38.0817481 205.083786,32.7491498 M200.033891,32.7491498 C200.033891,36.6039376 199.814536,40.8766347 197.293843,43.4077278 C195.65908,45.0216897 193.411636,45.935039 190.964692,45.935039 C188.515857,45.935039 186.344052,45.0216897 184.726308,43.4077278 C182.188597,40.8766347 181.923858,36.6039376 181.923858,32.7491498 C181.923858,28.8867981 182.188597,24.6131555 184.726308,22.0867898 C186.344052,20.4699914 188.515857,19.5623152 190.964692,19.5623152 C193.411636,19.5623152 195.65908,20.4699914 197.293843,22.0867898 C199.814536,24.6131555 200.033891,28.8867981 200.033891,32.7491498 M238.836107,32.7491498 C238.836107,27.4165516 238.142113,22.5756114 234.619194,19.0016359 C232.260181,16.6170947 228.965127,15.074045 224.746324,15.074045 C220.544539,15.074045 217.229629,16.6170947 214.874398,19.0006904 C211.347698,22.5746659 210.654649,27.4156061 210.654649,32.7482043 C210.654649,38.0817481 211.347698,42.9122878 214.874398,46.4928817 C217.230575,48.875532 220.544539,50.4204727 224.746324,50.4204727 C228.966073,50.4204727 232.260181,48.8764775 234.618249,46.4928817 C238.142113,42.9132333 238.835162,38.0817481 238.835162,32.7491498 M233.786212,32.7491498 C233.786212,36.6039376 233.585767,40.8766347 231.055619,43.4077278 C229.457731,45.0216897 227.209341,45.935039 224.746324,45.935039 C222.28047,45.935039 220.122848,45.0216897 218.508886,43.4077278 C215.997648,40.8766347 215.702653,36.6039376 215.702653,32.7491498 C215.702653,28.8867981 215.997648,24.6131555 218.508886,22.0867898 C220.123793,20.4699914 222.28047,19.5623152 224.746324,19.5623152 C227.209341,19.5623152 229.457731,20.4699914 231.055619,22.0867898 C233.585767,24.6131555 233.786212,28.8867981 233.786212,32.7491498 M271.858505,49.9997269 L271.858505,0.073748699 L266.80861,0.073748699 L266.80861,19.4895119 C263.994814,15.9136455 260.834966,15.074045 257.045417,15.074045 C253.539518,15.074045 250.443963,16.2748251 248.625774,18.0967961 C245.117983,21.5951319 244.424935,27.3437484 244.424935,32.7491498 C244.424935,38.1450963 245.118929,43.8993858 248.625774,47.3977215 C250.443963,49.2234746 253.539518,50.4204727 257.045417,50.4204727 C260.834966,50.4204727 264.068563,49.5061779 266.872904,45.8631813 L266.872904,49.9997269 L271.858505,49.9997269 Z M266.80861,32.7491498 C266.80861,39.4791914 265.686307,45.935039 258.160157,45.935039 C250.643463,45.935039 249.475775,39.4791914 249.475775,32.7491498 C249.475775,26.0153263 250.644408,19.5632606 258.160157,19.5632606 C265.686307,19.5632606 266.80861,26.0153263 266.80861,32.7491498 Z" id="path-1"></path>
        <filter x="-2.8%" y="-14.9%" width="106.6%" height="135.7%" filterUnits="objectBoundingBox" id="filter-2">
            <feMorphology radius="0.5" operator="dilate" in="SourceAlpha" result="shadowSpreadOuter1"></feMorphology>
            <feOffset dx="2" dy="2" in="shadowSpreadOuter1" result="shadowOffsetOuter1"></feOffset>
            <feGaussianBlur stdDeviation="2" in="shadowOffsetOuter1" result="shadowBlurOuter1"></feGaussianBlur>
            <feColorMatrix values="0 0 0 0 0.020658189   0 0 0 0 0.0206554089   0 0 0 0 0.0206554089  0 0 0 1 0" type="matrix" in="shadowBlurOuter1" result="shadowMatrixOuter1"></feColorMatrix>
            <feMorphology radius="0.5" operator="dilate" in="SourceAlpha" result="shadowSpreadOuter2"></feMorphology>
            <feOffset dx="-2" dy="-2" in="shadowSpreadOuter2" result="shadowOffsetOuter2"></feOffset>
            <feGaussianBlur stdDeviation="0.5" in="shadowOffsetOuter2" result="shadowBlurOuter2"></feGaussianBlur>
            <feColorMatrix values="0 0 0 0 0.205259461   0 0 0 0 0.201408646   0 0 0 0 0.201408646  0 0 0 0.263331273 0" type="matrix" in="shadowBlurOuter2" result="shadowMatrixOuter2"></feColorMatrix>
            <feMerge>
                <feMergeNode in="shadowMatrixOuter1"></feMergeNode>
                <feMergeNode in="shadowMatrixOuter2"></feMergeNode>
            </feMerge>
        </filter>
    </defs>
    <g id="Robinhood-Info-dark" stroke="none" stroke-width="1" fill="none" fill-rule="evenodd">
        <g id="robinhood-1-copy" transform="translate(47.141495, 104.797018)" fill-rule="nonzero">
            <g id="Shape">
                <use fill="black" fill-opacity="1" filter="url(#filter-2)" xlink:href="#path-1"></use>
                <use fill="#2E2E2E" xlink:href="#path-1"></use>
            </g>
        </g>
    </g>
</svg>