<?xml version="1.0" encoding="UTF-8"?>
<svg width="39px" height="52px" viewBox="0 0 39 52" version="1.1" xmlns="http://www.w3.org/2000/svg" xmlns:xlink="http://www.w3.org/1999/xlink">
    <title>Robinhood</title>
    <g id="Page-1" stroke="none" stroke-width="1" fill="none" fill-rule="evenodd">
        <g id="Desktop-HD" transform="translate(-323.000000, -5249.000000)" fill="#53C38E" fill-rule="nonzero">
            <g id="Robinhood" transform="translate(323.000000, 5249.000000)">
                <path d="M16.347717,40.8280101 L15.9747404,40.9799878 C13.7461507,41.7192508 10.4073558,42.8254314 7.5053361,44.2312252 C7.35265563,44.3034146 7.20979032,44.5243251 7.20979032,44.5243251 C7.13126893,44.670875 7.05165697,44.8228527 6.98894891,44.9704882 C6.67813508,45.7086657 6.17265364,46.820274 6.01997316,47.3342844 L5.87819843,47.7115147 L5.87819843,47.8531797 L5.94145177,47.9318824 L6.01997316,47.9318824 L6.378227,47.7853325 C7.20979032,47.4075593 8.2425647,46.820274 9.29006184,46.3062637 L9.35931335,46.3062637 C11.2767446,45.416638 13.1835656,44.5045274 15.0793784,43.5701222 C15.0793784,43.5701222 15.2996745,43.4235723 15.4529003,43.2032046 L16.4905823,41.1270805 L16.4905823,40.9805306 C16.4905823,40.8280101 16.4115156,40.7601629 16.3482623,40.8280101 M8.02663088,37.5778583 C8.17931136,37.2793306 8.83801857,36.0211723 8.99560663,35.7269869 L8.99560663,35.6537119 C13.524764,27.1511019 19.0288952,19.163045 25.3275103,11.8398906 L25.4856436,11.616809 C25.5658009,11.5408202 25.5658009,11.468088 25.4856436,11.3958986 C25.4071222,11.3209953 25.3275103,11.2450064 25.2648022,11.3209953 L24.9698017,11.3209953 C20.7983529,11.9153367 16.5691037,12.6540569 12.4134682,13.6875053 C11.9608796,13.8367691 11.7400382,14.0603935 11.6609716,14.1282407 C8.54247279,17.8294406 5.6409984,21.7477516 2.88566105,25.7453081 C2.97563347,25.9656758 2.97563347,26.4107534 2.97563347,26.4107534 C2.97563347,26.4107534 3.63434068,31.5861371 4.60876931,35.4333442 C2.22749913,42.4590566 0,51.7747473 0,51.7747473 L0,51.926725 C0,52 0.0790666765,52 0.14177473,52 L1.55406916,52 C1.62822825,52 1.70674964,51.9272678 1.78581631,51.8534501 L1.84906966,51.5549224 C3.2608188,47.7115147 4.9037698,43.8637648 6.67868037,40.1620221 C7.13126893,39.3445991 8.02663088,37.5778583 8.02663088,37.5778583" id="Shape"></path>
                <path d="M27.4933919,13.3944054 L27.4933919,13.0980489 C27.4933919,13.0220601 27.4132347,12.9455284 27.3505266,12.8771385 C27.2720052,12.8771385 27.1923933,12.8771385 27.1182342,12.9455284 L26.9715519,13.16861 C19.5294691,21.6750194 13.3720835,31.139974 8.47976473,41.274716 L8.32163138,41.4934554 L8.32163138,41.7192508 C8.38433943,41.7876408 8.38433943,41.7876408 8.47976473,41.7876408 L8.54247279,41.7876408 L8.76440477,41.7192508 C12.9194949,40.0160149 17.1645575,38.5374889 21.3938068,37.2793306 C21.6151935,37.2055129 21.8463954,37.0589629 21.9892607,36.8391381 C23.8535984,33.289373 28.1510086,26.3353073 28.1510086,26.3353073 C28.3091419,26.1122257 28.240981,25.8902297 28.240981,25.8902297 C28.240981,25.8902297 27.4933919,17.6058163 27.4933919,13.3944054" id="Path"></path>
                <path d="M37.0048405,1.41204871 C35.9720661,0.520808007 34.3912778,0.0779015434 32.0225493,0.00734046457 C29.9526382,-0.0686483895 27.4132347,0.450246929 24.5166679,1.33605986 C24.0738945,1.48858034 23.7739864,1.70840524 23.4010098,1.999334 C20.4351915,4.73873219 17.6171461,7.69849806 14.9365131,10.6571784 L14.7053113,10.877546 C14.636605,10.9535349 14.636605,11.024096 14.7053113,11.1000848 C14.7783798,11.1744454 14.8574464,11.2450064 14.9365131,11.1744454 L15.2320589,11.0995421 C19.6243491,10.138283 23.9953731,9.47229502 28.3091419,9.02450356 C28.6041424,9.02450356 28.9040505,9.10049241 29.1199843,9.24704235 C29.3577296,9.47229502 29.4198924,9.69537659 29.4198924,9.98684812 C29.3577296,14.2802184 29.4995044,18.5681609 29.8632111,22.7095534 L29.8632111,23.0053672 C29.8632111,23.0775566 29.9526382,23.1535454 30.014801,23.1535454 L30.0949582,23.1535454 C30.1734796,23.1535454 30.236733,23.1535454 30.236733,23.0775566 L30.3894134,22.8566461 C32.837754,19.3839555 35.4409561,16.0518442 38.2633638,12.8771385 C38.557819,12.5053359 38.637431,12.2822543 38.7159524,11.9837266 C39.5960463,6.58417579 38.2633638,2.44766824 37.0048405,1.41204871" id="Path"></path>
            </g>
        </g>
    </g>
</svg>