<?xml version="1.0" encoding="UTF-8"?>
<svg width="30px" height="30px" viewBox="0 0 30 30" version="1.1" xmlns="http://www.w3.org/2000/svg" xmlns:xlink="http://www.w3.org/1999/xlink">
    <title>sun</title>
    <defs>
        <path d="M25.7014929,15.6340405 C26.3640513,15.6340405 26.9279308,15.0715204 26.9279308,14.4105593 L26.9279308,11.6401479 C26.9279308,10.9791868 26.3640513,10.4166667 25.7014929,10.4166667 C25.0389345,10.4166667 24.475055,10.9791868 24.475055,11.6401479 L24.475055,14.4105593 C24.475055,15.0715204 25.0389345,15.6340405 25.7014929,15.6340405 Z M34.0610064,18.4044519 L36.0345846,16.4356316 C36.4997852,15.9715526 36.4997852,15.1699614 36.0204876,14.7058824 C35.555287,14.2277403 34.7658558,14.2277403 34.3006552,14.7058824 L32.327077,16.6747027 C31.8477794,17.1528447 31.8477794,17.9263099 32.327077,18.4044519 C32.7922775,18.868531 33.5817088,18.882594 34.0610064,18.4044519 Z M19.0618119,18.4044519 C19.5270125,17.9544359 19.5270125,17.1387817 19.0759089,16.6747027 L17.1164277,14.7058824 C16.6512271,14.2418033 15.8476988,14.2277403 15.3824983,14.7058824 C14.9172977,15.1699614 14.9172977,15.9715526 15.3684013,16.4215686 L17.3278825,18.4044519 C17.7930831,18.868531 18.5825144,18.868531 19.0618119,18.4044519 Z M25.687396,31.8627451 C29.4512916,31.8627451 32.5667257,28.7688846 32.5667257,25 C32.5667257,21.2451784 29.4512916,18.1372549 25.687396,18.1372549 C21.9375973,18.1372549 18.8221631,21.2451784 18.8221631,25 C18.8221631,28.7688846 21.9375973,31.8627451 25.687396,31.8627451 Z M39.0513399,26.2234812 C39.7138983,26.2234812 40.2777778,25.6609611 40.2777778,25 C40.2777778,24.3390389 39.7138983,23.7765188 39.0513399,23.7765188 L36.3024274,23.7765188 C35.625772,23.7765188 35.0618925,24.3390389 35.0618925,25 C35.0618925,25.6609611 35.625772,26.2234812 36.3024274,26.2234812 L39.0513399,26.2234812 Z M15.1005585,26.2234812 C15.7631169,26.2234812 16.3269964,25.6609611 16.3269964,25 C16.3269964,24.3390389 15.7631169,23.7765188 15.1005585,23.7765188 L12.337549,23.7765188 C11.6749906,23.7765188 11.1111111,24.3390389 11.1111111,25 C11.1111111,25.6609611 11.6749906,26.2234812 12.337549,26.2234812 L15.1005585,26.2234812 Z M36.0345846,35.3081806 C36.4997852,34.8300386 36.4997852,34.0565734 36.0345846,33.5784314 L34.0469094,31.6236741 C33.5817088,31.145532 32.7922775,31.145532 32.327077,31.6236741 C31.8477794,32.0877531 31.8477794,32.8752813 32.327077,33.3393603 L34.3006552,35.3222437 C34.7799527,35.7863227 35.555287,35.7722597 36.0345846,35.3081806 Z M17.0882337,35.3081806 L19.0618119,33.3534233 C19.5270125,32.8752813 19.5270125,32.0877531 19.0759089,31.6236741 C18.6107083,31.159595 17.8071801,31.159595 17.3278825,31.6236741 L15.3684013,33.5643684 C14.8891037,34.0284474 14.8891037,34.8300386 15.3543043,35.2941176 C15.8195049,35.7581967 16.6230331,35.7722597 17.0882337,35.3081806 Z M25.7014929,39.5833333 C26.3640513,39.5833333 26.9279308,39.0208132 26.9279308,38.3598521 L26.9279308,35.6035037 C26.9279308,34.9284796 26.3640513,34.3659595 25.7014929,34.3659595 C25.0389345,34.3659595 24.475055,34.9284796 24.475055,35.6035037 L24.475055,38.3598521 C24.475055,39.0208132 25.0389345,39.5833333 25.7014929,39.5833333 Z" id="path-1"></path>
        <filter x="-6.9%" y="-6.9%" width="113.7%" height="113.7%" filterUnits="objectBoundingBox" id="filter-2">
            <feGaussianBlur stdDeviation="1.5" in="SourceAlpha" result="shadowBlurInner1"></feGaussianBlur>
            <feOffset dx="0" dy="1" in="shadowBlurInner1" result="shadowOffsetInner1"></feOffset>
            <feComposite in="shadowOffsetInner1" in2="SourceAlpha" operator="arithmetic" k2="-1" k3="1" result="shadowInnerInner1"></feComposite>
            <feColorMatrix values="0 0 0 0 0.196140455   0 0 0 0 0.127162357   0 0 0 0 0.0649138292  0 0 0 1 0" type="matrix" in="shadowInnerInner1"></feColorMatrix>
        </filter>
    </defs>
    <g id="Page-1" stroke="none" stroke-width="1" fill="none" fill-rule="evenodd">
        <g id="Desktop-HD" transform="translate(-1329.000000, -37.000000)" fill-rule="nonzero">
            <g id="sun" transform="translate(1318.000000, 27.000000)">
                <use fill="#EA984E" xlink:href="#path-1"></use>
                <use fill="black" fill-opacity="1" filter="url(#filter-2)" xlink:href="#path-1"></use>
            </g>
        </g>
    </g>
</svg>